<?xml version="1.0" encoding="UTF-8" standalone="no"?>
<svg
   xmlns:dc="http://purl.org/dc/elements/1.1/"
   xmlns:cc="http://creativecommons.org/ns#"
   xmlns:rdf="http://www.w3.org/1999/02/22-rdf-syntax-ns#"
   xmlns:svg="http://www.w3.org/2000/svg"
   xmlns="http://www.w3.org/2000/svg"
   version="1.1"
   id="svg10975"
   viewBox="0 0 50.999999 65.000001"
   height="65"
   width="51">
  <defs
     id="defs10977">
    <clipPath
       id="clipPath36"
       clipPathUnits="userSpaceOnUse">
      <path
         id="path38"
         d="m 478.637,926.747 c -2.542,-2.819 -2.325,-7.176 0.487,-9.728 l 0,0 c 2.811,-2.552 7.151,-2.338 9.698,0.481 l 0,0 c 2.542,2.818 2.325,7.173 -0.485,9.727 l 0,0 c -1.315,1.194 -2.965,1.783 -4.61,1.783 l 0,0 c -1.871,0 -3.735,-0.762 -5.09,-2.263" />
    </clipPath>
    <radialGradient
       id="radialGradient44"
       spreadMethod="pad"
       gradientTransform="matrix(9.6630859,-0.010376,-0.0059357,-9.6912537,481.53223,925.96094)"
       gradientUnits="userSpaceOnUse"
       r="1"
       cy="0"
       cx="0"
       fy="0"
       fx="0">
      <stop
         id="stop46"
         offset="0"
         style="stop-opacity:1;stop-color:#5495d6" />
      <stop
         id="stop48"
         offset="1"
         style="stop-opacity:1;stop-color:#1b2765" />
    </radialGradient>
    <clipPath
       id="clipPath56"
       clipPathUnits="userSpaceOnUse">
      <path
         id="path58"
         d="m 464.053,948.441 c 10.11,4.898 17.114,1.519 21.464,-2.759 l 0,0 c 0.577,-0.566 1.109,-1.146 1.592,-1.723 l 0,0 c 2.763,-3.311 4.055,-6.564 4.055,-6.564 l 0,0 c 1.762,-0.328 3.41,-0.418 4.947,-0.342 l 0,0 c 0.099,0.006 0.19,0.006 0.292,0.013 l 0,0 c 0.092,0.008 0.176,0.018 0.268,0.027 l 0,0 c 3.401,0.306 7.816,1.609 11.853,5.656 l 0,0 c 0.139,0.139 0.277,0.286 0.415,0.432 l 0,0 c -0.624,0.745 -1.268,1.481 -1.967,2.184 l 0,0 c -6.427,6.406 -14.83,9.608 -23.233,9.608 l 0,0 c -6.931,0 -13.861,-2.178 -19.686,-6.532" />
    </clipPath>
    <linearGradient
       id="linearGradient64"
       spreadMethod="pad"
       gradientTransform="matrix(28.907974,-11.640808,-11.640808,-28.907959,474.29687,952.76758)"
       gradientUnits="userSpaceOnUse"
       y2="0"
       x2="1"
       y1="0"
       x1="0">
      <stop
         id="stop66"
         offset="0"
         style="stop-opacity:1;stop-color:#5495d6" />
      <stop
         id="stop68"
         offset="1"
         style="stop-opacity:1;stop-color:#1b2765" />
    </linearGradient>
    <clipPath
       id="clipPath76"
       clipPathUnits="userSpaceOnUse">
      <path
         id="path78"
         d="m 451.777,931.014 c -4.259,-16.002 4.01,-32.365 18.794,-38.705 l 0,0 c -9.297,6.305 -9.871,14.059 -8.342,19.966 l 0,0 c 0.202,0.782 0.439,1.532 0.697,2.24 l 0,0 c 1.486,4.049 3.657,6.794 3.657,6.794 l 0,0 c -0.598,1.691 -1.344,3.163 -2.178,4.454 l 0,0 c -0.054,0.083 -0.1,0.163 -0.157,0.248 l 0,0 c -0.051,0.075 -0.105,0.144 -0.156,0.219 l 0,0 c -1.966,2.791 -5.303,5.964 -10.825,7.436 l 0,0 c -0.191,0.052 -0.387,0.097 -0.582,0.143 l 0,0 c -0.334,-0.913 -0.649,-1.838 -0.908,-2.795" />
    </clipPath>
    <linearGradient
       id="linearGradient84"
       spreadMethod="pad"
       gradientTransform="matrix(-4.3730316,30.854767,30.854767,4.3730316,461.70117,899.01465)"
       gradientUnits="userSpaceOnUse"
       y2="0"
       x2="1"
       y1="0"
       x1="0">
      <stop
         id="stop86"
         offset="0"
         style="stop-opacity:1;stop-color:#5495d6" />
      <stop
         id="stop88"
         offset="1"
         style="stop-opacity:1;stop-color:#1b2765" />
    </linearGradient>
    <clipPath
       id="clipPath96"
       clipPathUnits="userSpaceOnUse">
      <path
         id="path98"
         d="m 502.882,908.774 c -0.779,-0.217 -1.546,-0.385 -2.288,-0.516 l 0,0 c -4.249,-0.738 -7.713,-0.231 -7.713,-0.231 l 0,0 c -1.165,-1.363 -2.066,-2.745 -2.769,-4.112 l 0,0 c -0.043,-0.089 -0.09,-0.169 -0.135,-0.261 l 0,0 c -0.039,-0.083 -0.072,-0.162 -0.111,-0.245 l 0,0 c -1.435,-3.097 -2.513,-7.573 -1.027,-13.093 l 0,0 c 0.05,-0.189 0.11,-0.383 0.167,-0.576 l 0,0 c 0.958,0.168 1.917,0.36 2.874,0.614 l 0,0 c 15.988,4.311 26.025,19.654 24.121,35.629 l 0,0 c -0.81,-11.205 -7.238,-15.581 -13.119,-17.209" />
    </clipPath>
    <linearGradient
       id="linearGradient104"
       spreadMethod="pad"
       gradientTransform="matrix(-24.534943,-19.213959,-19.213959,24.534943,514.62891,914.94824)"
       gradientUnits="userSpaceOnUse"
       y2="0"
       x2="1"
       y1="0"
       x1="0">
      <stop
         id="stop106"
         offset="0"
         style="stop-opacity:1;stop-color:#5495d6" />
      <stop
         id="stop108"
         offset="1"
         style="stop-opacity:1;stop-color:#1b2765" />
    </linearGradient>
    <clipPath
       id="clipPath116"
       clipPathUnits="userSpaceOnUse">
      <path
         id="path118"
         d="m 464.053,948.441 c 0,0 -7.136,-4.47 -10.865,-13.442 l 0,0 c 0.977,-0.169 10.932,-2.176 14.641,-13.24 l 0,0 c 0.907,0.579 3.692,2.779 5.563,8.839 l 0,0 c 2.262,7.326 6.556,12.732 12.125,15.084 l 0,0 c 0,0 -3.798,5.413 -11.513,5.413 l 0,0 c -2.799,10e-4 -6.114,-0.712 -9.951,-2.654" />
    </clipPath>
    <linearGradient
       id="linearGradient124"
       spreadMethod="pad"
       gradientTransform="matrix(12.994156,19.939316,19.939316,-12.994156,462.73242,930.63965)"
       gradientUnits="userSpaceOnUse"
       y2="0"
       x2="1"
       y1="0"
       x1="0">
      <stop
         id="stop126"
         offset="0"
         style="stop-opacity:1;stop-color:#5495d6" />
      <stop
         id="stop128"
         offset="1"
         style="stop-opacity:1;stop-color:#1b2765" />
    </linearGradient>
    <clipPath
       id="clipPath136"
       clipPathUnits="userSpaceOnUse">
      <path
         id="path138"
         d="m 470.571,892.309 c 0,0 7.429,-3.941 17.053,-2.693 l 0,0 c -0.174,0.48 -0.956,2.818 -0.957,6.077 l 0,0 c -0.002,3.714 1.03,8.63 5.154,13.26 l 0,0 0.046,0.072 c -0.673,0.719 -3.03,2.492 -9.093,1.111 l 0,0 c -7.474,-1.706 -15.723,-1.508 -20.545,2.139 l 0,0 c 0,0 -5.179,-11.135 8.342,-19.966" />
    </clipPath>
    <linearGradient
       id="linearGradient144"
       spreadMethod="pad"
       gradientTransform="matrix(-23.310287,-2.3762817,-2.3762817,23.310287,487.31738,902.20215)"
       gradientUnits="userSpaceOnUse"
       y2="0"
       x2="1"
       y1="0"
       x1="0">
      <stop
         id="stop146"
         offset="0"
         style="stop-opacity:1;stop-color:#5495d6" />
      <stop
         id="stop148"
         offset="1"
         style="stop-opacity:1;stop-color:#1b2765" />
    </linearGradient>
    <clipPath
       id="clipPath156"
       clipPathUnits="userSpaceOnUse">
      <path
         id="path158"
         d="m 495.249,935.516 c -1.358,0 -2.799,0.138 -4.322,0.453 l 0,0 -0.072,0.017 c -0.278,-1.021 -0.508,-3.911 3.609,-8.349 l 0,0 c 5.211,-5.622 9.164,-12.864 8.418,-18.863 l 0,0 c 0,0 12.234,1.082 13.119,17.209 l 0,0 c 0,0 -0.301,8.412 -6.201,16.126 l 0,0 c -1.063,-1.29 -6.118,-6.586 -14.551,-6.593" />
    </clipPath>
    <linearGradient
       id="linearGradient164"
       spreadMethod="pad"
       gradientTransform="matrix(4.7524414,-23.988632,-23.988632,-4.7524414,502.3252,935.92041)"
       gradientUnits="userSpaceOnUse"
       y2="0"
       x2="1"
       y1="0"
       x1="0">
      <stop
         id="stop166"
         offset="0"
         style="stop-opacity:1;stop-color:#5495d6" />
      <stop
         id="stop168"
         offset="1"
         style="stop-opacity:1;stop-color:#1b2765" />
    </linearGradient>
  </defs>
  <metadata
     id="metadata10980">
    <rdf:RDF>
      <cc:Work
         rdf:about="">
        <dc:format>image/svg+xml</dc:format>
        <dc:type
           rdf:resource="http://purl.org/dc/dcmitype/StillImage" />
        <dc:title></dc:title>
      </cc:Work>
    </rdf:RDF>
  </metadata>
  <g
     transform="translate(0,-987.36219)"
     id="layer1">
    <g
       transform="matrix(0.77776816,0,0,-0.77418556,-350.50867,1726.6886)"
       id="g5821">
      <g
         id="g32">
        <g
           id="g34"
           clip-path="url(#clipPath36)">
          <g
             id="g40">
            <g
               id="g42">
              <path
                 d="m 478.637,926.747 c -2.542,-2.819 -2.325,-7.176 0.487,-9.728 l 0,0 c 2.811,-2.552 7.151,-2.338 9.698,0.481 l 0,0 c 2.542,2.818 2.325,7.173 -0.485,9.727 l 0,0 c -1.315,1.194 -2.965,1.783 -4.61,1.783 l 0,0 c -1.871,0 -3.735,-0.762 -5.09,-2.263"
                 style="fill:url(#radialGradient44);stroke:none"
                 id="path50" />
            </g>
          </g>
        </g>
      </g>
      <g
         id="g52">
        <g
           id="g54"
           clip-path="url(#clipPath56)">
          <g
             id="g60">
            <g
               id="g62">
              <path
                 d="m 464.053,948.441 c 10.11,4.898 17.114,1.519 21.464,-2.759 l 0,0 c 0.577,-0.566 1.109,-1.146 1.592,-1.723 l 0,0 c 2.763,-3.311 4.055,-6.564 4.055,-6.564 l 0,0 c 1.762,-0.328 3.41,-0.418 4.947,-0.342 l 0,0 c 0.099,0.006 0.19,0.006 0.292,0.013 l 0,0 c 0.092,0.008 0.176,0.018 0.268,0.027 l 0,0 c 3.401,0.306 7.816,1.609 11.853,5.656 l 0,0 c 0.139,0.139 0.277,0.286 0.415,0.432 l 0,0 c -0.624,0.745 -1.268,1.481 -1.967,2.184 l 0,0 c -6.427,6.406 -14.83,9.608 -23.233,9.608 l 0,0 c -6.931,0 -13.861,-2.178 -19.686,-6.532"
                 style="fill:url(#linearGradient64);stroke:none"
                 id="path70" />
            </g>
          </g>
        </g>
      </g>
      <g
         id="g72">
        <g
           id="g74"
           clip-path="url(#clipPath76)">
          <g
             id="g80">
            <g
               id="g82">
              <path
                 d="m 451.777,931.014 c -4.259,-16.002 4.01,-32.365 18.794,-38.705 l 0,0 c -9.297,6.305 -9.871,14.059 -8.342,19.966 l 0,0 c 0.202,0.782 0.439,1.532 0.697,2.24 l 0,0 c 1.486,4.049 3.657,6.794 3.657,6.794 l 0,0 c -0.598,1.691 -1.344,3.163 -2.178,4.454 l 0,0 c -0.054,0.083 -0.1,0.163 -0.157,0.248 l 0,0 c -0.051,0.075 -0.105,0.144 -0.156,0.219 l 0,0 c -1.966,2.791 -5.303,5.964 -10.825,7.436 l 0,0 c -0.191,0.052 -0.387,0.097 -0.582,0.143 l 0,0 c -0.334,-0.913 -0.649,-1.838 -0.908,-2.795"
                 style="fill:url(#linearGradient84);stroke:none"
                 id="path90" />
            </g>
          </g>
        </g>
      </g>
      <g
         id="g92">
        <g
           id="g94"
           clip-path="url(#clipPath96)">
          <g
             id="g100">
            <g
               id="g102">
              <path
                 d="m 502.882,908.774 c -0.779,-0.217 -1.546,-0.385 -2.288,-0.516 l 0,0 c -4.249,-0.738 -7.713,-0.231 -7.713,-0.231 l 0,0 c -1.165,-1.363 -2.066,-2.745 -2.769,-4.112 l 0,0 c -0.043,-0.089 -0.09,-0.169 -0.135,-0.261 l 0,0 c -0.039,-0.083 -0.072,-0.162 -0.111,-0.245 l 0,0 c -1.435,-3.097 -2.513,-7.573 -1.027,-13.093 l 0,0 c 0.05,-0.189 0.11,-0.383 0.167,-0.576 l 0,0 c 0.958,0.168 1.917,0.36 2.874,0.614 l 0,0 c 15.988,4.311 26.025,19.654 24.121,35.629 l 0,0 c -0.81,-11.205 -7.238,-15.581 -13.119,-17.209"
                 style="fill:url(#linearGradient104);stroke:none"
                 id="path110" />
            </g>
          </g>
        </g>
      </g>
      <g
         id="g112">
        <g
           id="g114"
           clip-path="url(#clipPath116)">
          <g
             id="g120">
            <g
               id="g122">
              <path
                 d="m 464.053,948.441 c 0,0 -7.136,-4.47 -10.865,-13.442 l 0,0 c 0.977,-0.169 10.932,-2.176 14.641,-13.24 l 0,0 c 0.907,0.579 3.692,2.779 5.563,8.839 l 0,0 c 2.262,7.326 6.556,12.732 12.125,15.084 l 0,0 c 0,0 -3.798,5.413 -11.513,5.413 l 0,0 c -2.799,10e-4 -6.114,-0.712 -9.951,-2.654"
                 style="fill:url(#linearGradient124);stroke:none"
                 id="path130" />
            </g>
          </g>
        </g>
      </g>
      <g
         id="g132">
        <g
           id="g134"
           clip-path="url(#clipPath136)">
          <g
             id="g140">
            <g
               id="g142">
              <path
                 d="m 470.571,892.309 c 0,0 7.429,-3.941 17.053,-2.693 l 0,0 c -0.174,0.48 -0.956,2.818 -0.957,6.077 l 0,0 c -0.002,3.714 1.03,8.63 5.154,13.26 l 0,0 0.046,0.072 c -0.673,0.719 -3.03,2.492 -9.093,1.111 l 0,0 c -7.474,-1.706 -15.723,-1.508 -20.545,2.139 l 0,0 c 0,0 -5.179,-11.135 8.342,-19.966"
                 style="fill:url(#linearGradient144);stroke:none"
                 id="path150" />
            </g>
          </g>
        </g>
      </g>
      <g
         id="g152">
        <g
           id="g154"
           clip-path="url(#clipPath156)">
          <g
             id="g160">
            <g
               id="g162">
              <path
                 d="m 495.249,935.516 c -1.358,0 -2.799,0.138 -4.322,0.453 l 0,0 -0.072,0.017 c -0.278,-1.021 -0.508,-3.911 3.609,-8.349 l 0,0 c 5.211,-5.622 9.164,-12.864 8.418,-18.863 l 0,0 c 0,0 12.234,1.082 13.119,17.209 l 0,0 c 0,0 -0.301,8.412 -6.201,16.126 l 0,0 c -1.063,-1.29 -6.118,-6.586 -14.551,-6.593"
                 style="fill:url(#linearGradient164);stroke:none"
                 id="path170" />
            </g>
          </g>
        </g>
      </g>
      <g
         id="g1210"
         transform="translate(456.7588,875.6475)">
        <path
           d="m 0,0 c 0.162,-0.038 0.362,-0.05 0.638,-0.05 1.014,0 1.64,0.514 1.64,1.378 0,0.776 -0.538,1.239 -1.489,1.239 C 0.4,2.567 0.137,2.53 0,2.493 L 0,0 Z m -1.893,3.832 c 0.59,0.1 1.416,0.175 2.581,0.175 1.177,0 2.016,-0.225 2.58,-0.675 C 3.806,2.905 4.17,2.204 4.17,1.377 4.17,0.551 3.894,-0.15 3.393,-0.625 2.742,-1.24 1.777,-1.516 0.65,-1.516 0.4,-1.516 0.174,-1.503 0,-1.477 l 0,-3.019 -1.893,0 0,8.328 z"
           style="fill:#393536;fill-opacity:1;fill-rule:nonzero;stroke:none"
           id="path1212" />
      </g>
      <g
         id="g1214"
         transform="translate(464.3604,875.3472)">
        <path
           d="m 0,0 c 0,-1.652 0.775,-2.817 2.053,-2.817 1.29,0 2.028,1.227 2.028,2.867 0,1.516 -0.726,2.818 -2.04,2.818 C 0.751,2.868 0,1.64 0,0 m 6.099,0.112 c 0,-2.766 -1.679,-4.445 -4.146,-4.445 -2.505,0 -3.97,1.892 -3.97,4.296 0,2.529 1.616,4.419 4.109,4.419 2.592,0 4.007,-1.941 4.007,-4.27"
           style="fill:#393536;fill-opacity:1;fill-rule:nonzero;stroke:none"
           id="path1216" />
      </g>
      <g
         id="g1218"
         transform="translate(478.5371,871.3906)">
        <path
           d="m 0,0 c -0.352,-0.175 -1.141,-0.376 -2.168,-0.376 -2.917,0 -4.419,1.828 -4.419,4.232 0,2.881 2.053,4.482 4.608,4.482 0.989,0 1.74,-0.199 2.078,-0.374 L -0.289,6.449 c -0.389,0.163 -0.927,0.313 -1.604,0.313 -1.514,0 -2.692,-0.914 -2.692,-2.793 0,-1.69 1.003,-2.755 2.706,-2.755 0.575,0 1.214,0.125 1.59,0.276 L 0,0 Z"
           style="fill:#393536;fill-opacity:1;fill-rule:nonzero;stroke:none"
           id="path1220" />
      </g>
      <g
         id="g1222"
         transform="translate(484.6729,874.6577)">
        <path
           d="m 0,0 -0.827,2.431 c -0.188,0.55 -0.313,1.051 -0.438,1.54 l -0.025,0 C -1.416,3.47 -1.553,2.957 -1.716,2.443 L -2.542,0 0,0 Z m -2.768,-0.851 -0.876,-2.655 -1.127,0 2.869,8.441 1.312,0 2.881,-8.441 -1.163,0 -0.903,2.655 -2.993,0 z"
           style="fill:#393536;fill-opacity:1;fill-rule:nonzero;stroke:none"
           id="path1224" />
      </g>
      <g
         id="g1226"
         transform="translate(489.4707,878.666)">
        <path
           d="m 0,0 -2.568,0 0,0.926 6.249,0 0,-0.926 -2.58,0 0,-7.514 L 0,-7.514 0,0 Z"
           style="fill:#393536;fill-opacity:1;fill-rule:nonzero;stroke:none"
           id="path1228" />
      </g>
      <g
         id="g1230"
         transform="translate(495.043,875.3218)">
        <path
           d="m 0,0 c 0,-1.803 0.976,-3.417 2.692,-3.417 1.728,0 2.705,1.589 2.705,3.506 C 5.397,1.767 4.52,3.52 2.705,3.52 0.901,3.52 0,1.854 0,0 m 6.549,0.138 c 0,-2.904 -1.766,-4.446 -3.92,-4.446 -2.229,0 -3.794,1.729 -3.794,4.283 0,2.68 1.666,4.432 3.92,4.432 2.304,0 3.794,-1.764 3.794,-4.269"
           style="fill:#393536;fill-opacity:1;fill-rule:nonzero;stroke:none"
           id="path1232" />
      </g>
      <g
         id="g1234"
         transform="translate(510.748,874.8589)">
        <path
           d="m 0,0 c -0.064,1.178 -0.139,2.592 -0.127,3.644 l -0.037,0 C -0.452,2.655 -0.802,1.59 -1.229,0.438 l -1.49,-4.094 -0.826,0 -1.364,4.019 c -0.402,1.19 -0.739,2.279 -0.978,3.281 l -0.025,0 C -5.937,2.592 -6,1.178 -6.075,-0.088 l -0.226,-3.619 -1.038,0 0.589,8.44 1.39,0 1.439,-4.081 c 0.35,-1.04 0.64,-1.967 0.852,-2.843 l 0.038,0 c 0.212,0.851 0.512,1.777 0.888,2.843 l 1.502,4.081 1.39,0 0.526,-8.44 -1.063,0 L 0,0 Z"
           style="fill:#393536;fill-opacity:1;fill-rule:nonzero;stroke:none"
           id="path1236" />
      </g>
    </g>
  </g>
</svg>
