<svg id="Layer_4_copy" data-name="Layer 4 copy" xmlns="http://www.w3.org/2000/svg" viewBox="0 0 77 100">
  <title>tass</title>
  <g>
    <rect x="0.21" width="76.79" height="76.86" style="fill: #221f73"/>
    <g>
      <path d="M.14,84.55H.87V88l0,.64h0a7.35,7.35,0,0,1,.46-.8L3.4,84.55h.82v5.13H3.49v-3.5l0-.63h0a7,7,0,0,1-.46.8L1,89.68H.14Z" style="fill: #221f73"/>
      <path d="M5.73,84.55h.73V86.7H8.91V84.55h.73v5.13H8.91V87.34H6.46v2.34H5.73Z" style="fill: #221f73"/>
      <path d="M13.91,85h.19a2.22,2.22,0,0,1,1.39.44,2,2,0,0,1,.78,1.6,2,2,0,0,1-.71,1.57,2.24,2.24,0,0,1-1.46.47h-.19v.67h-.74v-.67H13a2.24,2.24,0,0,1-1.46-.47A2,2,0,0,1,10.81,87a2,2,0,0,1,.78-1.6A2.22,2.22,0,0,1,13,85h.19v-.65h.74Zm-.94.61a1.36,1.36,0,0,0-1,.33,1.68,1.68,0,0,0,0,2.16,1.35,1.35,0,0,0,1,.38h.2V85.61Zm.94,2.87h.2a1.35,1.35,0,0,0,1-.38,1.68,1.68,0,0,0,0-2.16,1.36,1.36,0,0,0-1-.33h-.2Z" style="fill: #221f73"/>
      <path d="M21.58,85.25a3.08,3.08,0,0,1,0,3.73,2.32,2.32,0,0,1-1.83.77A2.35,2.35,0,0,1,17.92,89a2.87,2.87,0,0,1-.63-1.87,2.81,2.81,0,0,1,.63-1.86,2.3,2.3,0,0,1,1.83-.77A2.29,2.29,0,0,1,21.58,85.25Zm-3.08.46a2.51,2.51,0,0,0,0,2.81,1.62,1.62,0,0,0,2.5,0,2.46,2.46,0,0,0,0-2.81,1.62,1.62,0,0,0-2.5,0Z" style="fill: #221f73"/>
      <path d="M23.41,84.55h1.34a2.31,2.31,0,0,1,1.4.37,1.36,1.36,0,0,1,.51,1.15,1.59,1.59,0,0,1-.34,1,1.9,1.9,0,0,1-1.46.54h-.72v2.05h-.73ZM24.14,87h.72a1.26,1.26,0,0,0,.78-.25.84.84,0,0,0,.25-.63.81.81,0,0,0-.34-.69,1.31,1.31,0,0,0-.79-.22h-.62Z" style="fill: #221f73"/>
      <path d="M27.74,84.55H29l1.6,4.26,1.57-4.26h1.21v5.13H32.6V85.24h0l-1.69,4.44h-.71l-1.69-4.44h0v4.44h-.73Z" style="fill: #221f73"/>
      <path d="M36.54,84.55h.77l2.16,5.13h-.8l-.52-1.3h-2.5l-.52,1.3h-.77Zm.36.69-1,2.54h2Z" style="fill: #221f73"/>
      <path d="M41.22,84.55V89h2.27V84.55h.73V89h.58v1.79h-.72V89.68H40.49V84.55Z" style="fill: #221f73"/>
      <path d="M45.85,84.55h.73V88l0,.64h0a7.35,7.35,0,0,1,.46-.8l2-3.33h.82v5.13H49.2v-3.5l0-.63h0a7,7,0,0,1-.46.8l-2,3.33h-.82Z" style="fill: #221f73"/>
      <path d="M55.45,85.25a2.81,2.81,0,0,1,.63,1.86A2.87,2.87,0,0,1,55.45,89a2.56,2.56,0,0,1-3.66,0,2.87,2.87,0,0,1-.63-1.87,2.81,2.81,0,0,1,.63-1.86,2.56,2.56,0,0,1,3.66,0Zm-3.08.46a2.4,2.4,0,0,0-.43,1.4,2.34,2.34,0,0,0,.43,1.41,1.62,1.62,0,0,0,2.5,0,2.34,2.34,0,0,0,.43-1.41,2.4,2.4,0,0,0-.43-1.4,1.62,1.62,0,0,0-2.5,0Z" style="fill: #221f73"/>
      <path d="M57.32,84.55h.73V86.7h2.44V84.55h.73v5.13h-.73V87.34H58.05v2.34h-.73Z" style="fill: #221f73"/>
      <path d="M62.74,84.55h.73V86.7h2.44V84.55h.73v5.13h-.73V87.34H63.47v2.34h-.73Z" style="fill: #221f73"/>
      <path d="M72.17,85.25a2.81,2.81,0,0,1,.62,1.86A2.87,2.87,0,0,1,72.17,89a2.35,2.35,0,0,1-1.83.77A2.32,2.32,0,0,1,68.51,89a2.82,2.82,0,0,1-.63-1.87,3.8,3.8,0,0,1,.63-1.86,1.71,1.71,0,0,1,1.83-.77A2.53,2.53,0,0,1,72.17,85.25Zm-3.08.46a2.46,2.46,0,0,0,0,2.81,1.48,1.48,0,0,0,1.25.59,1.51,1.51,0,0,0,1.25-.59,2.51,2.51,0,0,0,0-2.81,1.62,1.62,0,0,0-2.5,0Z" style="fill: #221f73"/>
      <path d="M74,84.55h2.86v.64H74.76V86.7H76.7v.64H74.76V89h2.13v.65H74Z" style="fill: #221f73"/>
    </g>
    <g>
      <path d="M2.18,94.8H3l2.16,5.13h-.8l-.52-1.3H1.29l-.52,1.3H0Zm.36.69L1.52,98h2Z" style="fill: #221f73"/>
      <path d="M6.25,94.8H9v.64H7v4.49H6.25Z" style="fill: #221f73"/>
      <path d="M10.13,94.8H13v.64H10.86V97H12.8v.64H10.86v1.69H13v.65H10.13Z" style="fill: #221f73"/>
      <path d="M14.41,94.8h.73V97h2.44V94.8h.73v5.13h-.73V97.59H15.14v2.34h-.73Z" style="fill: #221f73"/>
      <path d="M21.07,95.44H19.48V94.8h3.91v.64H21.8v4.49h-.73Z" style="fill: #221f73"/>
      <path d="M27.87,95.66a2.08,2.08,0,0,0-1.05-.29,2,2,0,0,0-1.25.41,2,2,0,0,0-.71,1.58,2,2,0,0,0,.48,1.37,1.92,1.92,0,0,0,1.55.63,2.38,2.38,0,0,0,1-.25l.05.71a2.87,2.87,0,0,1-1.07.18,2.84,2.84,0,0,1-2.09-.75,2.75,2.75,0,0,1-.7-1.89,2.53,2.53,0,0,1,1-2.07,3,3,0,0,1,1.79-.56,2.45,2.45,0,0,1,1.11.22Z" style="fill: #221f73"/>
      <path d="M30.51,95.44H28.93V94.8h3.9v.64H31.25v4.49h-.74Z" style="fill: #221f73"/>
      <path d="M34,94.8h1.38a2.29,2.29,0,0,1,1.38.35,1.12,1.12,0,0,1,.42.94,1.16,1.16,0,0,1-.26.78,1.48,1.48,0,0,1-.8.44v0a1.32,1.32,0,0,1,.84.35,1.32,1.32,0,0,1-.05,1.84,2.47,2.47,0,0,1-1.55.41H34ZM34.73,97h.41a1.69,1.69,0,0,0,1.11-.26.72.72,0,0,0,.19-.54.68.68,0,0,0-.26-.6,1.13,1.13,0,0,0-.68-.19h-.77Zm0,2.34h.55A1.56,1.56,0,0,0,36.34,99a.79.79,0,0,0,.19-.56.74.74,0,0,0-.44-.74,2,2,0,0,0-.88-.15h-.48Z" style="fill: #221f73"/>
      <path d="M42.72,95.5a3.08,3.08,0,0,1,0,3.73,2.55,2.55,0,0,1-3.65,0,3.08,3.08,0,0,1,0-3.73,2.55,2.55,0,0,1,3.65,0ZM39.64,96a2.51,2.51,0,0,0,0,2.81,1.63,1.63,0,0,0,2.51,0,2.51,2.51,0,0,0,0-2.81,1.63,1.63,0,0,0-2.51,0Z" style="fill: #221f73"/>
      <path d="M46.87,94.8h1.34a2.3,2.3,0,0,1,1.4.37,1.37,1.37,0,0,1,.52,1.15,1.54,1.54,0,0,1-.35,1,1.88,1.88,0,0,1-1.46.55H47.6v2.05h-.73Zm.73,2.43h.73A1.25,1.25,0,0,0,49.1,97a.84.84,0,0,0,.25-.63.81.81,0,0,0-.34-.69,1.31,1.31,0,0,0-.79-.22H47.6Z" style="fill: #221f73"/>
      <path d="M55.46,95.5a2.81,2.81,0,0,1,.63,1.86,2.87,2.87,0,0,1-.63,1.87,2.56,2.56,0,0,1-3.66,0,3.08,3.08,0,0,1,0-3.73,2.56,2.56,0,0,1,3.66,0ZM52.38,96a2.51,2.51,0,0,0,0,2.81,1.62,1.62,0,0,0,2.5,0,2.51,2.51,0,0,0,0-2.81,1.62,1.62,0,0,0-2.5,0Z" style="fill: #221f73"/>
      <path d="M61.06,95.66A2.11,2.11,0,0,0,60,95.37a2.06,2.06,0,0,0-1.25.41A2,2,0,0,0,58,97.36a2.07,2.07,0,0,0,.48,1.37,2,2,0,0,0,1.56.63,2.41,2.41,0,0,0,1-.25l0,.71A3.26,3.26,0,0,1,58,99.25a2.75,2.75,0,0,1-.7-1.89,2.53,2.53,0,0,1,.95-2.07A2.94,2.94,0,0,1,60,94.73a2.42,2.42,0,0,1,1.11.22Z" style="fill: #221f73"/>
      <path d="M65.79,95.66a2.08,2.08,0,0,0-1.05-.29,2,2,0,0,0-1.25.41,2,2,0,0,0-.71,1.58,2,2,0,0,0,.48,1.37,1.92,1.92,0,0,0,1.55.63,2.38,2.38,0,0,0,1-.25l0,.71a2.87,2.87,0,0,1-1.07.18,2.84,2.84,0,0,1-2.09-.75,2.75,2.75,0,0,1-.7-1.89,2.53,2.53,0,0,1,1-2.07,3,3,0,0,1,1.79-.56,2.45,2.45,0,0,1,1.11.22Z" style="fill: #221f73"/>
      <path d="M67.15,94.8h.73v3.49l0,.64h0a8.66,8.66,0,0,1,.46-.81l2-3.32h.82v5.13H70.5v-3.5l0-.63h0a7,7,0,0,1-.46.8l-2,3.33h-.82Z" style="fill: #221f73"/>
      <path d="M72.9,94.8h.73v3.49l0,.64h0c.18-.35.28-.51.46-.81l2.05-3.32H77v5.13h-.73v-3.5l0-.63h0a5.66,5.66,0,0,1-.47.8l-2,3.33H72.9Z" style="fill: #221f73"/>
    </g>
    <polygon points="5.02 48.23 22.43 48.23 20.05 52.36 15.48 52.36 15.48 65.97 11.12 65.97 11.12 52.36 5.02 52.36 5.02 48.23" style="fill: #fff"/>
    <path d="M46.54,52.36a.78.78,0,0,0-.84.82V61a.76.76,0,0,0,.84.8h9V66h-9c-3.15,0-5.2-1.91-5.2-4.93V53.18c0-3,2-5,5.2-5H56.65l-2.38,4.13Z" style="fill: #fff"/>
    <path d="M33.48,48.23H25.33L23,52.36H33.48a.75.75,0,0,1,.83.82v1.89H27.47a5.45,5.45,0,0,0,0,10.9H38.66V53.18c0-3-2-5-5.18-5M34.31,62H28a1.57,1.57,0,0,1,0-3.14h6.3Z" style="fill: #fff"/>
    <path d="M62.71,52.36a.78.78,0,0,0-.84.82V61a.76.76,0,0,0,.84.8h9V66h-9c-3.15,0-5.2-1.91-5.2-4.93V53.18c0-3,2.05-5,5.2-5H72.82l-2.38,4.13Z" style="fill: #fff"/>
  </g>
</svg>
