<svg id="Layer_1" data-name="Layer 1" xmlns="http://www.w3.org/2000/svg" viewBox="0 0 1440 640">
  <defs>
    <style>
      .cls-1 {
        fill: #1e4c92;
      }

      .cls-2 {
        fill: #1f5098;
      }

      .cls-3 {
        fill: #294680;
      }

      .cls-4 {
        fill: #3e85c5;
      }

      .cls-5 {
        fill: #5771b5;
      }

      .cls-6 {
        fill: #19478a;
      }

      .cls-35, .cls-7 {
        fill: #0094d9;
      }

      .cls-8 {
        fill: #4365ae;
      }

      .cls-9 {
        fill: #154284;
      }

      .cls-10 {
        fill: #2f5aa8;
      }

      .cls-11 {
        fill: #00275b;
      }

      .cls-12 {
        fill: #2f59a7;
      }

      .cls-13 {
        fill: #8dd7f7;
      }

      .cls-14 {
        fill: #002155;
      }

      .cls-15 {
        fill: #077cc0;
      }

      .cls-16, .cls-21, .cls-22 {
        fill: none;
        stroke-miterlimit: 10;
        stroke-width: 0.08px;
      }

      .cls-16 {
        stroke: #042c63;
      }

      .cls-17 {
        fill: #001f52;
      }

      .cls-18 {
        fill: #2364ae;
      }

      .cls-19 {
        fill: #93c1e3;
      }

      .cls-20 {
        fill: #002256;
      }

      .cls-21 {
        stroke: #002155;
      }

      .cls-22 {
        stroke: #1e4c92;
      }

      .cls-23 {
        fill: #00adee;
      }

      .cls-24 {
        fill: #001747;
      }

      .cls-25 {
        fill: #0468b2;
      }

      .cls-26 {
        fill: #4667b0;
      }

      .cls-27 {
        fill: #133b7a;
      }

      .cls-28 {
        fill: #05346e;
      }

      .cls-29 {
        fill: #0a3976;
      }

      .cls-30 {
        fill: #042c63;
      }

      .cls-31 {
        fill: #002558;
      }

      .cls-32 {
        fill: #1a478b;
      }

      .cls-33 {
        fill: #001c4d;
      }

      .cls-34 {
        fill: #1c93d1;
      }

      .cls-34, .cls-35 {
        fill-rule: evenodd;
      }
    </style>
  </defs>
  <title>1440x640_bg</title>
  <polygon class="cls-1" points="104.42 50.95 66.63 116.4 28.84 50.95 104.42 50.95"/>
  <polygon class="cls-2" points="66.63 116.4 104.42 50.95 142.21 116.4 66.63 116.4"/>
  <polygon class="cls-3" points="180 50.95 142.21 116.4 104.42 50.95 180 50.95"/>
  <polygon class="cls-4" points="142.21 116.4 180 50.95 217.79 116.4 142.21 116.4"/>
  <polygon class="cls-5" points="255.58 50.95 217.79 116.4 180 50.95 255.58 50.95"/>
  <polygon class="cls-3" points="217.79 116.4 255.58 50.95 293.37 116.4 217.79 116.4"/>
  <polygon class="cls-6" points="28.84 181.85 66.63 116.4 104.42 181.85 28.84 181.85"/>
  <polygon class="cls-7" points="142.21 116.4 104.42 181.85 66.63 116.4 142.21 116.4"/>
  <polygon class="cls-4" points="104.42 181.85 142.21 116.4 180 181.85 104.42 181.85"/>
  <polygon class="cls-5" points="217.79 116.4 180 181.85 142.21 116.4 217.79 116.4"/>
  <polygon class="cls-8" points="180 181.85 217.79 116.4 255.58 181.85 180 181.85"/>
  <polygon class="cls-9" points="104.42 181.85 66.63 247.31 28.84 181.85 104.42 181.85"/>
  <polygon class="cls-10" points="66.63 247.31 104.42 181.85 142.21 247.31 66.63 247.31"/>
  <polygon class="cls-5" points="142.21 247.31 180 181.85 217.79 247.31 142.21 247.31"/>
  <polygon class="cls-8" points="217.79 247.31 255.58 181.85 293.37 247.31 217.79 247.31"/>
  <polygon class="cls-11" points="28.84 312.76 66.63 247.31 104.42 312.76 28.84 312.76"/>
  <polygon class="cls-12" points="142.21 247.31 104.42 312.76 66.63 247.31 142.21 247.31"/>
  <polygon class="cls-7" points="104.42 312.76 142.21 247.31 180 312.76 104.42 312.76"/>
  <polygon class="cls-4" points="217.79 247.31 180 312.76 142.21 247.31 217.79 247.31"/>
  <polygon class="cls-13" points="180 312.76 217.79 247.31 255.58 312.76 180 312.76"/>
  <polygon class="cls-14" points="104.42 312.76 66.63 378.22 28.84 312.76 104.42 312.76"/>
  <polygon class="cls-12" points="66.63 378.22 104.42 312.76 142.21 378.22 66.63 378.22"/>
  <polygon class="cls-15" points="180 312.76 142.21 378.22 104.42 312.76 180 312.76"/>
  <polygon class="cls-4" points="142.21 378.22 180 312.76 217.79 378.22 142.21 378.22"/>
  <polygon class="cls-13" points="255.58 312.76 217.79 378.22 180 312.76 255.58 312.76"/>
  <polygon class="cls-3" points="217.79 378.22 255.58 312.76 293.37 378.22 217.79 378.22"/>
  <polygon class="cls-16" points="66.63 378.22 28.84 443.68 -8.95 378.22 66.63 378.22"/>
  <polygon class="cls-17" points="28.84 443.68 66.63 378.22 104.42 443.68 28.84 443.68"/>
  <polygon class="cls-2" points="142.21 378.22 104.42 443.68 66.63 378.22 142.21 378.22"/>
  <polygon class="cls-18" points="104.42 443.68 142.21 378.22 180 443.68 104.42 443.68"/>
  <polygon class="cls-7" points="217.79 378.22 180 443.68 142.21 378.22 217.79 378.22"/>
  <polygon class="cls-13" points="180 443.68 217.79 378.22 255.58 443.68 180 443.68"/>
  <polygon class="cls-19" points="293.37 378.22 255.58 443.68 217.79 378.22 293.37 378.22"/>
  <polygon class="cls-20" points="104.42 443.68 66.63 509.14 28.84 443.68 104.42 443.68"/>
  <polygon class="cls-21" points="104.42 443.68 66.63 509.14 28.84 443.68 104.42 443.68"/>
  <polygon class="cls-14" points="66.63 509.14 104.42 443.68 142.21 509.14 66.63 509.14"/>
  <polygon class="cls-1" points="180 443.68 142.21 509.14 104.42 443.68 180 443.68"/>
  <polygon class="cls-22" points="180 443.68 142.21 509.14 104.42 443.68 180 443.68"/>
  <polygon class="cls-23" points="142.21 509.14 180 443.68 217.79 509.14 142.21 509.14"/>
  <polygon class="cls-24" points="28.84 574.59 66.63 509.14 104.42 574.59 28.84 574.59"/>
  <polygon class="cls-18" points="142.21 509.14 104.42 574.59 66.63 509.14 142.21 509.14"/>
  <polygon class="cls-25" points="217.79 509.14 180 574.59 142.21 509.14 217.79 509.14"/>
  <polygon class="cls-25" points="331.02 50.92 293.24 116.38 255.44 50.92 331.02 50.92"/>
  <polygon class="cls-23" points="406.6 50.92 368.81 116.38 331.02 50.92 406.6 50.92"/>
  <polygon class="cls-23" points="255.44 181.83 293.24 116.38 331.02 181.83 255.44 181.83"/>
  <polygon class="cls-13" points="331.02 181.83 293.24 247.29 255.44 181.83 331.02 181.83"/>
  <polygon class="cls-3" points="255.44 312.74 293.24 247.29 331.02 312.74 255.44 312.74"/>
  <polygon class="cls-13" points="331.02 312.74 293.24 378.2 255.44 312.74 331.02 312.74"/>
  <polygon class="cls-26" points="180 181.85 142.21 247.31 104.42 181.85 180 181.85"/>
  <polygon class="cls-24" points="28.84 574.54 66.63 640 104.42 574.54 28.84 574.54"/>
  <polygon class="cls-18" points="142.21 640 104.42 574.54 66.63 640 142.21 640"/>
  <polygon class="cls-25" points="217.79 640 180 574.54 142.21 640 217.79 640"/>
  <polygon class="cls-27" points="-0.64 0 28.75 50.91 58.14 0 -0.64 0"/>
  <polygon class="cls-28" points="58.14 0 28.75 50.91 104.32 50.91 74.92 0 58.14 0"/>
  <polygon class="cls-20" points="74.92 0 104.32 50.91 133.71 0 74.92 0"/>
  <polygon class="cls-14" points="133.71 0 104.32 50.91 179.88 50.91 150.49 0 133.71 0"/>
  <polygon class="cls-17" points="150.49 0 179.88 50.91 209.28 0 150.49 0"/>
  <polygon class="cls-28" points="209.28 0 179.88 50.91 255.45 50.91 226.06 0 209.28 0"/>
  <polygon class="cls-20" points="226.06 0 255.45 50.91 284.84 0 226.06 0"/>
  <polygon class="cls-14" points="284.84 0 255.45 50.91 331.01 50.91 301.62 0 284.84 0"/>
  <polygon class="cls-1" points="301.62 0 331.01 50.91 360.4 0 301.62 0"/>
  <polygon class="cls-4" points="360.4 0 331.01 50.91 406.58 50.91 377.19 0 360.4 0"/>
  <polygon class="cls-1" points="0 1.1 0 50.91 28.75 50.91 0 1.1"/>
  <polygon class="cls-29" points="0 50.95 0 100.9 28.84 50.95 0 50.95"/>
  <polygon class="cls-30" points="0 116.4 0 131.9 28.84 181.85 66.63 116.4 0 116.4"/>
  <polygon class="cls-14" points="0 116.4 66.63 116.4 28.84 50.95 0 100.9 0 116.4"/>
  <polygon class="cls-11" points="0 131.9 0 181.85 28.84 181.85 0 131.9"/>
  <polygon class="cls-14" points="0 181.85 0 231.81 28.84 181.85 0 181.85"/>
  <polygon class="cls-31" points="0 247.31 66.63 247.31 28.84 181.85 0 231.81 0 247.31"/>
  <polygon class="cls-14" points="0 247.31 0 262.81 28.84 312.76 66.63 247.31 0 247.31"/>
  <polygon class="cls-30" points="0 262.81 0 312.76 28.84 312.76 0 262.81"/>
  <polygon class="cls-24" points="0 312.76 0 362.72 28.84 312.76 0 312.76"/>
  <polygon class="cls-32" points="0 378.22 66.63 378.22 28.84 312.76 0 362.72 0 378.22"/>
  <polygon class="cls-14" points="0 393.72 0 443.68 28.84 443.68 0 393.72"/>
  <polygon class="cls-24" points="0 378.22 0 393.72 28.84 443.68 66.63 378.22 0 378.22"/>
  <polygon class="cls-17" points="0 443.68 0 493.63 28.84 443.68 0 443.68"/>
  <polygon class="cls-28" points="0 509.14 66.63 509.14 28.84 443.68 0 493.63 0 509.14"/>
  <polygon class="cls-33" points="0 509.14 0 524.64 28.84 574.59 66.63 509.14 0 509.14"/>
  <polygon class="cls-24" points="0 524.64 0 574.59 28.84 574.59 0 524.64"/>
  <polygon class="cls-24" points="0 574.54 0 624.5 28.84 574.54 0 574.54"/>
  <polygon class="cls-33" points="0 640 66.63 640 28.84 574.54 0 624.5 0 640"/>
  <polygon class="cls-11" points="1440 337.06 1417.16 376.61 1439.94 376.61 1440 337.06"/>
  <polygon class="cls-30" points="1379.15 310.77 1417.16 376.61 1440 337.06 1440 310.77 1379.15 310.77"/>
  <polygon class="cls-6" points="1417.16 376.61 1379.15 310.77 1341.14 376.61 1417.16 376.61"/>
  <polygon class="cls-9" points="1341.14 376.61 1379.15 442.46 1417.16 376.61 1341.14 376.61"/>
  <polygon class="cls-11" points="1417.16 508.31 1379.15 442.46 1341.14 508.31 1417.16 508.31"/>
  <polygon class="cls-14" points="1341.14 508.31 1379.15 574.15 1417.16 508.31 1341.14 508.31"/>
  <polygon class="cls-12" points="1379.15 574.15 1341.14 508.31 1303.11 574.15 1379.15 574.15"/>
  <polygon class="cls-15" points="1265.1 508.31 1303.11 574.15 1341.14 508.31 1265.1 508.31"/>
  <polygon class="cls-17" points="1417.16 640 1379.15 574.15 1341.14 640 1417.16 640"/>
  <polygon class="cls-2" points="1303.11 574.15 1341.14 640 1379.15 574.15 1303.11 574.15"/>
  <polygon class="cls-18" points="1341.14 640 1303.11 574.15 1265.1 640 1341.14 640"/>
  <polygon class="cls-13" points="1150 639.98 1187.99 574.17 1188.04 574.17 1226.03 639.98 1150 639.98"/>
  <polygon class="cls-14" points="1440 376.61 1417.16 376.61 1440 416.17 1440 376.61"/>
  <polygon class="cls-31" points="1440 416.17 1417.16 376.61 1379.15 442.46 1440 442.46 1440 416.17"/>
  <polygon class="cls-14" points="1440 442.46 1379.15 442.46 1417.16 508.31 1440 468.75 1440 442.46"/>
  <polygon class="cls-30" points="1440 468.75 1417.16 508.31 1440 508.31 1440 468.75"/>
  <polygon class="cls-24" points="1440 508.31 1417.16 508.31 1440 547.86 1440 508.31"/>
  <polygon class="cls-32" points="1440 547.86 1417.16 508.31 1379.15 574.15 1440 574.15 1440 547.86"/>
  <polygon class="cls-14" points="1440 600.44 1417.16 640 1440 640 1440 600.44"/>
  <polygon class="cls-24" points="1440 574.15 1379.15 574.15 1417.16 640 1440 600.44 1440 574.15"/>
  <path class="cls-34" d="M4.16,640H5.44L7.73,537.82l0-.12a6.08,6.08,0,0,0,4.35-.29l51.63,86.25a5.39,5.39,0,0,0-6.12,5.13L36.2,640H39l18.8-9.83a5.63,5.63,0,0,0,.35,1.05l-4.34,5.63L45.65,640h3.52l3.1-1.2-.92,1.2H53l1.61-2.09,9.3-3.6.22,0a5.85,5.85,0,0,0,.67,1.62,6.05,6.05,0,0,0,6.37,2.84l.46,1.27h1.35l-.59-1.65a5.56,5.56,0,0,0,.73-.37,6.53,6.53,0,0,0,1.1-.84L78,640h2.14L75,636.16a6.07,6.07,0,0,0,.69-5.37l75.59-16.55L153,621.8,139.82,640h1.58l16.86-23.34a6.07,6.07,0,0,0,8.72-7.33L233.27,577a6.6,6.6,0,0,0,1.64,1.74,6.06,6.06,0,1,0,.39-10.15,6,6,0,0,0-2,1.85l-67.25-35,70,9.45a5.28,5.28,0,0,0,.75,2.33,5.38,5.38,0,1,0,9.23-5.53l-.09-.15,64.51-51.25a5.38,5.38,0,1,0,.41-9.62l-35.54-59.37,99.89-71.33a5.38,5.38,0,1,0,3.33-9L358.17,256.9a5.38,5.38,0,0,0-3.88-8.6L331,216.8l29.41-40.19a6.06,6.06,0,1,0,3.05-11.3L362,151.41l93-55.68a5.38,5.38,0,1,0,1.49-7.91l-.16.1L395.73,15a5.38,5.38,0,0,0-2-9.13L393.4,0h-1.28l.3,5.64A5.41,5.41,0,0,0,387,9.35L368.14,0h-2.87l21.47,10.65a5.43,5.43,0,0,0,.75,3.13,5.65,5.65,0,0,0,.71.94L357.92,27a6.13,6.13,0,0,0-.78-2.08A6.06,6.06,0,0,0,352,21.94L349.7,0h-1.29l2.28,22.07a6.27,6.27,0,0,0-1.86.73l-.16.1L330.32,0h-1.63l19,23.7a6.06,6.06,0,0,0-.94,7.42l.19.3L313.75,44.84,303.83,0h-1.31l10,45.33-15.14,6.12L279.51,28a6.07,6.07,0,0,0-4.66-10.19L280.18,0h-1.33l-5.12,17.06L272.91,0h-1.27l.87,18.33a4.86,4.86,0,0,0-.55.29c-.16.1-.32.2-.47.31L241.41,0H239l31.49,19.83a6.11,6.11,0,0,0-1.41,2.94l-43,28.08L204.13,31.07,209,0H207.7L203,30,182.07,11.16,179.07,0h-1.33l2.58,9.58L169.7,0h-1.9l13.13,11.85L195.15,64.7a6.69,6.69,0,0,0-.93.46,6.06,6.06,0,0,0-2.15,2.18L138.4,43.64a6,6,0,0,0-.57-5,6.19,6.19,0,0,0-1.88-2L154.77,0h-1.44L134.81,36.13a6.06,6.06,0,1,0-2.21,11.72l2.82,28.27-31.5,1.34a5.26,5.26,0,0,0-.5-1.08,5.34,5.34,0,0,0-2.86-2.33L128,0h-1.36L99.3,73.78a5.35,5.35,0,0,0-2.27.28l-1.15.56a5.38,5.38,0,0,0-1.87,7L11.53,161.15a5.39,5.39,0,0,0-8.48,5l-3,.38v1.29l3.35-.43a4.78,4.78,0,0,0,.43.88,5.38,5.38,0,0,0,5,2.61L39.7,229.44l-1.65,11L0,220.36v1.44l37.85,20L37,247.72,0,250v1.28L36.76,249l-3.09,20.58a6.08,6.08,0,0,0-5.82,5.87L0,276.1v1.27l28-.63a5.92,5.92,0,0,0,.76,2,6,6,0,0,0,4.61,2.92l2,19.17-17.2,64.54L0,340.85V343l17.71,24-4.13,15.49L0,373.41v1.53l13.23,8.82-1.11,4.18a5.38,5.38,0,0,0-3.53.71l-.08.05L0,378.08v2l7.52,9.37a5.39,5.39,0,0,0,3,9.1L10,414.42,0,417v1.32l10-2.6-.71,21.32-9.26,8v1.69l9.2-7.93L7.77,481.53a5.36,5.36,0,0,0-4.9,4.88L0,486.49v1.27l2.9-.08a5.44,5.44,0,0,0,.62,1.83L0,492.05v1.58l4.27-3.09a5.37,5.37,0,0,0,3.2,1.68L6.7,526.57l-.23.14a6.08,6.08,0,0,0-2.93,4.63l-3.54,0v1.28l3.56,0a6.07,6.07,0,0,0,2.91,4.49v.43L0,552.52v3.22l6.38-14.8Zm51.91-4,2.76-3.58A5.37,5.37,0,0,0,61.09,634ZM11.9,526.31l8-27,13.48,13.35L14,527.71A6,6,0,0,0,11.9,526.31ZM30.7,382.42,43.08,375l2.57,24.51a6,6,0,0,0-1.81.7ZM42.82,401a5.34,5.34,0,0,0-.57.6l-20.6-13.73,8-4.76ZM39.11,272.54a3.17,3.17,0,0,0-.23-.36l5.25-4.41-2.64,9.92-1.72-.5A6,6,0,0,0,39.11,272.54Zm103.79-154a6.74,6.74,0,0,0,.82-.58l32.57,30.91a6.15,6.15,0,0,0-1.24,4.05l-8.78,1.47L134.1,118l1-.7A6,6,0,0,0,142.9,118.56Zm-6.08-41.23L190,75.07l-45.73,34.17a6.07,6.07,0,0,0-4.41-1.94ZM396.73,75a5.91,5.91,0,0,0,.69,1.65l.15.24-36.22,30a6.05,6.05,0,0,0-8.67.2L348,103.51,360,80Zm-36,3.68L375.42,50l22.29,20a6.07,6.07,0,0,0-1.15,3.74ZM349.25,256.43a5.07,5.07,0,0,0,.61.83L334.2,271.55l-23.67-17.7a6,6,0,0,0,0-6.21l-.15-.24,38.41,4.52A5.34,5.34,0,0,0,349.25,256.43Zm-6.05,29.65a6,6,0,0,0,2.36,2.24l-18.95,47-18.42-3.61-.93-33.85,27-24.68,8.91,6.66A6.06,6.06,0,0,0,343.2,286.08Zm-17.08,50.47L311.3,373.34a6,6,0,0,0-2-1.54l-1.06-38.75ZM229.3,505.08l-32.41,10-42-27.7.19-6.34,60.5,2.42,15.09,16.42A6.09,6.09,0,0,0,229.3,505.08ZM158.24,526.2a6,6,0,0,0-4.38-2.89l1-34.42,40.44,26.69-36.71,11.35A5.56,5.56,0,0,0,158.24,526.2Zm.79,7-1.17-.16.23-.33ZM114.42,599.1h0l-31.1,16.26L107.38,586l7.27,7.2A5.38,5.38,0,0,0,114.42,599.1ZM108.19,585l17.14-20.91-5.26,26.93a5.4,5.4,0,0,0-3.79.67,4.74,4.74,0,0,0-.77.56Zm-.91-.9L54.4,531.74l72.73-1.31a5.4,5.4,0,0,0,3.72,5.42l-5,25.63Zm-72-71.35L72.1,484.2l67.3-3.5a5.33,5.33,0,0,0,.73,3.36,4.82,4.82,0,0,0,.66.88l-7.89,40.42a5.3,5.3,0,0,0-3.16.75,5.36,5.36,0,0,0-2.38,3l-74.22,1.34Zm16.09,17.74-35.77.64a5.78,5.78,0,0,0-.81-2.36l0-.08,19.52-15.15ZM80.25,352.76l14.91-8.92a5.38,5.38,0,0,0,4.9,2.05l21,67.44L53,405.5a6.05,6.05,0,0,0-2.34-4.84ZM49.54,400a6.07,6.07,0,0,0-2.62-.61l-2.63-25.09,33.58-20.1Zm5.22-225.71,111-18.5,4.43,5-48.59,40.36L65,183.58,54.31,177.3A6.12,6.12,0,0,0,54.76,174.28ZM300,247.78a6.06,6.06,0,0,0,.08,6.09c.1.16.2.31.31.46l-39.07,35.45-19.19-46.7a5.37,5.37,0,0,0,1.91-3.47l53.28,6.26Zm-.05-1.6,1.2.14c-.15.14-.28.28-.41.42ZM143.48,476.06a5.49,5.49,0,0,0-1.41.57L130.36,439l22.58-17.53a6.06,6.06,0,0,0,2.6,1.68l-.84,28.52Zm11.12-21.13L154,474l-6.29,2.8a5.38,5.38,0,0,0-2.8-.91Zm-50.5-117,17.45-12.71,10.36,28.21-27.38-11.15A5.3,5.3,0,0,0,104.1,337.89Zm12.53-127.13,20.3-3.51,14,4.33a5.43,5.43,0,0,0,.62,4,5.29,5.29,0,0,0,2,1.95L143.2,240.68l-27.78-25.87A6.1,6.1,0,0,0,116.63,210.76Zm-1-3,6.28-5.22,12.35,3.84-17.84,3.09a6,6,0,0,0-.63-1.46Zm118.47,33.83-8.51,6.2L225,234.57l8.64,2.68A5.38,5.38,0,0,0,234.09,241.63Zm.77,1a5.35,5.35,0,0,0,2,1.33l-10.21,28.34-1-23Zm-.69-6.56-9.24-2.87-.49-11,11,12.44A5.18,5.18,0,0,0,234.17,236.09Zm-8.63,39.39-11.29,31.36-29.63-27.6,39.79-29ZM119.69,299.81a6.07,6.07,0,0,0-.14-3.16l24.09-53.82,39,36.29-35.45,25.82ZM145.76,306l-23.59,17.18-6.53-17.77.61-1.35a5.49,5.49,0,0,0,.63-.34,6.08,6.08,0,0,0,2.4-2.66Zm37.81-26,30.21,28.13-3.12,8.65L148.9,305.26Zm27.93,38.23,10.67,2a6.06,6.06,0,0,0,.84,3.6,5.84,5.84,0,0,0,1.11,1.35l-29.52,40Zm10.9.74-10.47-2,2.86-7.94,8.58,8A6.16,6.16,0,0,0,222.4,319Zm-38.73-40.62-39.48-36.77L154.74,218a5.37,5.37,0,0,0,4.17-.58,5.3,5.3,0,0,0,2.25-2.67l62.53,19.4.66,14.56Zm-41-36.45-23.83,53.24a6.07,6.07,0,0,0-5.67-2.69l-1.79-75.28a6,6,0,0,0,2.33-.82,5.38,5.38,0,0,0,.86-.62ZM114,304.55l.29.78-13.44,30a5.34,5.34,0,0,0-3.66.31l-2.91-5.53,16.36-26.45A6.1,6.1,0,0,0,114,304.55Zm.92,2.5,6.2,16.88-17.75,12.93a5.51,5.51,0,0,0-1.34-1Zm7.73,17.35,24.85-18.11L210.23,318,192,368.72l-3,4a5.34,5.34,0,0,0-3.22.75,5.13,5.13,0,0,0-1.42,1.23L133.51,354Zm43.56,105.31,25.38,27.61-36.24,16.14L156,452Zm-10.13,19,.75-25.28a6.17,6.17,0,0,0,3.12-.51l5.32,5.79Zm9.77-21.26-4.77-5.2a6,6,0,0,0,1.78-2.14l5.79,1.25Zm-2.54-8.55a6,6,0,0,0-.67-4.62,6,6,0,0,0-1.48-1.67l23.07-31.23a5.45,5.45,0,0,0,2,1.65l-17.07,37.15Zm24.18-35.47a5.38,5.38,0,0,0,6-3.13L224,395.94l-1.44,30.73a6.09,6.09,0,0,0-5.15,3.92l-47-10.16Zm2.87-10.35.11-.15-.06.17Zm-6.7,2.78a5.4,5.4,0,0,0-.12,4.3l-23.47,31.77a6,6,0,0,0-5.28,0l-20.66-56.26Zm-28.35,99,37.19-16.56,21.91,23.84-59.24-2.38Zm11.48-46.42,3.14-6.83,47.21,10.21a6.06,6.06,0,0,0,6.28,6.93l.7,4.08-31.3,13.94Zm57.1-1.76,1.41-30.11,30.36,15.54-27.87,16.69A6.12,6.12,0,0,0,223.87,426.69Zm.23-32.15L193.82,379a5.36,5.36,0,0,0-.69-3.68,5.09,5.09,0,0,0-1.6-1.69l1.56-4.34,32-43.39a6.22,6.22,0,0,0,2.15.76Zm1-79a6.14,6.14,0,0,0-.86.63l-9-8.36,10.43-28.95,1.61,35.89A6,6,0,0,0,225.1,315.51Zm1.73-39.84,11.31-31.4a5.28,5.28,0,0,0,2.93-.49l19.28,46.91-28.1,25.5a6.06,6.06,0,0,0-3.67-1.53Zm17.26-37.35a5.38,5.38,0,0,0-3.64-4.5l1.47-27.38,53.28,37.89Zm-3.33-34.27-13-9.28a6,6,0,0,0-.08-6.08l-.07-.12L242.21,177Zm-.08,1.51-1.5,28a5.27,5.27,0,0,0-2.66.46l-12.18-13.8-1-22.43a5.83,5.83,0,0,0,2.2-.79,6.18,6.18,0,0,0,1.44-1.19Zm-17.05,27.26-62.15-19.29a5.32,5.32,0,0,0-.72-3.47,5.39,5.39,0,0,0-7.38-1.86,5.46,5.46,0,0,0-2,2.18l-11.65-3.61,61.66-10.68,21.74,24.63ZM137,205.94l-13.94-4.33,48-39.85L200.36,195Zm30.25-50.41,8-1.33a6.13,6.13,0,0,0,.65,1.49l.15.25L171.19,160Zm-46.81,46.6-5.64,4.69a6.06,6.06,0,0,0-7.34-.86,6.19,6.19,0,0,0-1.77,1.6L69.78,186.41Zm-14.08,13.4a6,6,0,0,0,3.71,1.67l1.8,75.53a6.39,6.39,0,0,0-1.22.56,6.05,6.05,0,0,0-2.79,3.79l-36.7-10.72L56.08,257.75Zm1.34,82.83a6,6,0,0,0,.86,3.25,6.49,6.49,0,0,0,1,1.29l-16,25.92L72,287.93Zm-11.63,38a5.36,5.36,0,0,0-1.57,6.41l-12.8,7.66,11.77-19Zm5.23,9.26a6.42,6.42,0,0,0,.88-.42,5.44,5.44,0,0,0,1.8-1.77L132.51,355l21.15,57.61a6,6,0,0,0-2.27,4.2l-29-3.33Zm50.09,72.52a6,6,0,0,0,.79,2.32L130,437.69l-7.12-22.87ZM141,477.44a5.25,5.25,0,0,0-1.28,2l-65.85,3.43,55.43-43Zm-8.88,58.65a5,5,0,0,0,1.68-.14l2.78,12.45-9,11Zm2.89-.59.27-.15a5.39,5.39,0,0,0,2.55-3.77l10.4,1.41a7.19,7.19,0,0,0,.51.59L137.6,547.15Zm2.87-5.27,9.16-.16a6,6,0,0,0,.39,1.52l-9.55-1.29Zm9.13-1.44-9.41.17a5,5,0,0,0-.46-1,5.43,5.43,0,0,0-3-2.36l7.76-39.73a5.37,5.37,0,0,0,5.6.05,5.23,5.23,0,0,0,1.27-1.06l4.84,3.2-1,35.21a6.09,6.09,0,0,0-5.58,5.52Zm2.51-45a5.33,5.33,0,0,0,.6-3l3.72.15-.16,5.56Zm.33-4.25a4.75,4.75,0,0,0-.47-1,6.33,6.33,0,0,0-.56-.77l5.18-2.31-.12,4.27Zm67.57,4,13.79.55,2.4,14a6,6,0,0,0-1.46.63c-.17.11-.34.22-.5.34Zm-1.22-1.33-22.48-24.45,30.61-13.63L231,482.81Zm8.47-43.65a6,6,0,0,0,1.57-.66,6.07,6.07,0,0,0,2.25-8L257,412.81l16.08,8.24L225.3,442.31ZM258.27,412l15.83-9.48-.19,17.49Zm-1.34-.69-31.58-16.17,3.22-68.42a6.12,6.12,0,0,0,4.09-1.93l41.93,31.32-.48,44.92Zm-23.51-87.54a6,6,0,0,0,0-6.21,4.76,4.76,0,0,0-.31-.47L260.86,292l12.08,29.4a5.39,5.39,0,0,0,1.92,9.31l-.25,23.9ZM274,320.65,261.87,291l39.41-35.75a6.14,6.14,0,0,0,3.57,1.52L306,297.35l-26.21,23.94A5.37,5.37,0,0,0,274,320.65Zm7,2.08a4.93,4.93,0,0,0-.36-.53L306,299l.9,32.46-25.25-4.95A5.33,5.33,0,0,0,281,322.73Zm-5.14,34.36,25,18.66a6.09,6.09,0,0,0,.67,4.65,6,6,0,0,0,2.94,2.51l-29,17.39Zm27.72,15a6.12,6.12,0,0,0-2.27,2.42l-25.44-19,.26-24.64a5.38,5.38,0,0,0,5.13-3.1l25.68,5L308,371.36A6.12,6.12,0,0,0,303.58,372.08Zm29.66-99.65-26,23.77-1.08-39.44a5.88,5.88,0,0,0,2.3-.81,6.12,6.12,0,0,0,1.34-1.07Zm-24.88-26.92a6,6,0,0,0-4-.74l-24.64-90.71a5.91,5.91,0,0,0,.91-.45,6,6,0,0,0,2.55-3l5.66,1.52L303,179.7a5.38,5.38,0,0,0,5.68,9.14l20.71,28Zm-17.86-93,27.24,7.28-9.88,19.3a5.35,5.35,0,0,0-3.74,0ZM309,179.7l10-19.54,17.87,4.78-26.62,15.93A5.37,5.37,0,0,0,309,179.7Zm10.6-20.7,19.22-37.54,15.74,32.9L338.4,164Zm20-39,7.86-15.37,4.51,3.4a6.07,6.07,0,0,0,5.19,9.18l3.5,33.49-5,3Zm7.42-17.3-20.31-15.3a6.11,6.11,0,0,0,1-2.92l30.85-4.25Zm-.59,1.15-7.52,14.7L324.8,89.24a6.48,6.48,0,0,0,1-.82ZM338.11,120l-19.78,38.65L289.71,151l-5.6-10.94,35.07-50.39a6,6,0,0,0,4.48.12Zm-50.06,30.55-4.54-1.21a6.08,6.08,0,0,0-2-5.52l1.79-2.58Zm-7.61-7.46a6.25,6.25,0,0,0-2.48-.74l-.41-12.29,5.07,9.9Zm-2,11.29,24.64,90.71-.3.13-5-.59L242,204.93l1.55-29,29.63-23.34A6,6,0,0,0,278.48,154.39Zm-6.16-2.87.07.12-28.75,22.64,2.94-55.09,26.17,25.47A6.07,6.07,0,0,0,272.32,151.52Zm2.09-8.31a5.3,5.3,0,0,0-.77.54l-27-26.25,2.15-40.19a5.29,5.29,0,0,0,1.52-.32l25.84,50.41.5,15A6.08,6.08,0,0,0,274.41,143.21Zm-29-26.9L202.53,74.53l40.63-1.73a5.26,5.26,0,0,0,.69,1.9,5.38,5.38,0,0,0,3.7,2.54Zm-.09,1.7-3.07,57.33-15.53,12.23a6,6,0,0,0-4.93-1.8L199.18,76.14a5.72,5.72,0,0,0,1.26-.58,5.3,5.3,0,0,0,.77-.54Zm-23.3,79.84.93,20.84-20.17-22.85,13.77-2.38a6,6,0,0,0,.63,1.45A6.08,6.08,0,0,0,222.07,197.85Zm-5.69-5.65-14.54,2.52L172,160.94l4.84-4a6,6,0,0,0,7.34.86,5.33,5.33,0,0,0,.82-.59l32.58,30.92A6.1,6.1,0,0,0,216.38,192.2Zm-51.59-37.55L54.48,173a6,6,0,0,0-.55-1.21L133,118.67ZM59.65,181.93l-7.17-2.23a5.87,5.87,0,0,0,1.21-1.28Zm4.8,2.83,40.61,23.9a6,6,0,0,0,.32,5.62l.17.27-50.08,42-3-5.68a5.38,5.38,0,0,0-4.83-9.16L41,229.21,48.26,181a6.06,6.06,0,0,0,2.71-.41ZM49.57,252.34a5.19,5.19,0,0,0,1.86-.66l3,5.75-8.06,6.76Zm5.5,6.24,14.39,27.28-26.74-7.81,3.12-11.71Zm-12.68,20.7,27.9,8.15,22.5,42.65L79.34,351.83,44.15,372.89l-7.53-71.95Zm3.43,132.13a6.06,6.06,0,0,0,7-4.64l68.63,7.89,7.42,23.86L71.63,483,24,485.43Zm24,72.91L34.35,511.88,20.28,497.93l3.3-11.2ZM19.24,496.91l-6.77-6.71a5.33,5.33,0,0,0,1.13-2.95l8.63-.45ZM65.92,624.46l-.3-.18-52.4-87.53a6,6,0,0,0,2.4-4.31l37-.67,53.85,53.35-26,31.76Zm6.14,2.63a6.12,6.12,0,0,0-4-.05,5.08,5.08,0,0,0-.4-.81,5.13,5.13,0,0,0-.65-.88l11.39-6Zm3.07,2.52a6.08,6.08,0,0,0-1.9-1.94l8-9.78,34-17.76a5.38,5.38,0,1,0,6.08-8.68L127,562,136.93,550,151,613ZM154,620.43,152.52,614l3-.66a5.18,5.18,0,0,0,.55,1.2,6.06,6.06,0,0,0,1.15,1.4Zm4.19-14.23a6,6,0,0,0-2.91,5.86l-3,.66-14.3-64,11.76-14.35a6.06,6.06,0,0,0,3.3,1l7,70.08A6.24,6.24,0,0,0,158.16,606.2Zm74.61-34.64a6.09,6.09,0,0,0-.06,4.29l-66.3,32.33a6,6,0,0,0-5.1-2.84l-7-70.09a6,6,0,0,0,1.88-.73c.19-.12.38-.25.56-.39l5.65.77Zm3.4-28-73.41-9.91-4.08-2.12a6,6,0,0,0,.31-3.39l37.71-11.66,39.69,26.21A5,5,0,0,0,236.17,543.57Zm9-3.05a5.39,5.39,0,0,0-6.48-.72,5.46,5.46,0,0,0-1.78,1.73L198.27,516l31.41-9.7a6.14,6.14,0,0,0,.37.72,6.06,6.06,0,1,0,4.81-9.17l-2.36-13.7,75.5,3a5.39,5.39,0,0,0,.51,1.13,5.08,5.08,0,0,0,.94,1.16Zm64.63-59.23a5.36,5.36,0,0,0-2.07,4.6l-75.48-3-6.75-39.27,48.75-21.7Zm-34.64-61.45.19-18,30.85-18.46a6.06,6.06,0,0,0,5.92-8.69L327.4,336.8l46.49,9.11a5.28,5.28,0,0,0,.64,3Zm81.44-161.55a4.2,4.2,0,0,0,.49-.33l20.25,83.3a6,6,0,0,0-.88.43,5.32,5.32,0,0,0-2.36,3l-46.24-9.06,18.85-46.79a6.06,6.06,0,1,0-1.45-11,5.88,5.88,0,0,0-1.33,1.08l-8.72-6.52,15.58-14.22A5.4,5.4,0,0,0,356.63,258.29Zm-3.86-9.89a5.46,5.46,0,0,0-1.67.65,5.29,5.29,0,0,0-1.73,1.66L309.57,246l20.6-28.15Zm-22.61-32.68-20.48-27.64A5.37,5.37,0,0,0,310.9,182l27.69-16.57,18.82,5a6.13,6.13,0,0,0,1.91,5.43Zm27.58-46.53-17.63-4.71,15-9,5.12,10.7A6,6,0,0,0,357.74,169.19Zm4.4-3.75a6.73,6.73,0,0,0-.77.21l-5.17-10.8,4.55-2.72ZM392.6,16.38a5.37,5.37,0,0,0,2.09-.63l60.62,73a5.38,5.38,0,0,0-1,5.9L361.81,150l-3.44-32.9a6.27,6.27,0,0,0,1.86-.73,6.07,6.07,0,0,0,2.08-8.32l-.15-.24,36.22-30a6.06,6.06,0,1,0,1.13-9.54,6.13,6.13,0,0,0-.95.7L376,48.77ZM358,28.32l31.34-12.68a5.44,5.44,0,0,0,1.85.68L375,47.89,356.85,31.56A6.06,6.06,0,0,0,358,28.32Zm-8.32,5.31a6,6,0,0,0,5.38-.43,6.5,6.5,0,0,0,.94-.69l18.43,16.55L359.17,78.87l-31.6,4.36a5.82,5.82,0,0,0-.8-2.23,6,6,0,0,0-1.36-1.59Zm-1.87-1.19a5.41,5.41,0,0,0,.75.59L324.33,78.71a6.1,6.1,0,0,0-3.23-.64l-7.07-32Zm-35,14.15,7,31.71a5.81,5.81,0,0,0-1.38.61l-.09.06L298.21,52.5Zm4.53,33.16a6.07,6.07,0,0,0-1,7.47,6,6,0,0,0,1.7,1.83l-34.62,49.73-6-11.71-2.18-65.29L297,53ZM278.19,29l.36-.23L296.19,52l-21,8.47-1-30.6A6,6,0,0,0,278.19,29Zm-2.11,95.39-24.6-48a5.39,5.39,0,0,0,2.19-5.88L274,62.29ZM269,24.34a6.09,6.09,0,0,0,3.89,5.15L274,60.93l-20.78,8.41-.1-.17a5.38,5.38,0,0,0-7.38-1.85,6.45,6.45,0,0,0-.78.56L227,51.74ZM244.08,68.83a5.29,5.29,0,0,0-1,2.7l-40.45,1.72a6,6,0,0,0,.07-5.65l23.21-15.14ZM203.89,32.57l21.06,19L202,66.53a6.1,6.1,0,0,0-3.14-2ZM182.68,13.43l20.08,18.12-5.13,32.76a5.85,5.85,0,0,0-1.25.06Zm10.66,61.5a6.07,6.07,0,0,0,4.59,1.46L220.59,186a5.8,5.8,0,0,0-1.27.58,4.89,4.89,0,0,0-.82.59l-32.58-30.92a6.06,6.06,0,0,0-7.93-8.89,6.81,6.81,0,0,0-.82.59l-32.58-30.92a6,6,0,0,0,.4-6.78L192.22,75Zm-59.47-27.2a6.24,6.24,0,0,0,1.88-.74,6,6,0,0,0,2.14-2.18l53.67,23.7a6,6,0,0,0,.56,4.94l-.35.26L136.7,76.06Zm-29.69,31,31.37-1.34,3,30a5.87,5.87,0,0,0-1.88.73,6.06,6.06,0,0,0-2.24,8l-1.18.8L102.92,82.62A5.43,5.43,0,0,0,104.18,78.73Zm-9.45,3.93a5.38,5.38,0,0,0,6.84,1.1,3.74,3.74,0,0,0,.42-.27l30.19,34.21-79,53.1a6.06,6.06,0,0,0-10.22,5.94l-29.56-9.17a5.37,5.37,0,0,0-.37-4.81,5.7,5.7,0,0,0-.54-.75Zm-84.6,88a5.43,5.43,0,0,0,2.61-1.92l31,9.6A6,6,0,0,0,47,180.75l-7,46.56ZM40.7,231.34l5.71,10.83a4.5,4.5,0,0,0-.43.23,5.35,5.35,0,0,0-1.55,1.4l-5.18-2.74ZM39.05,242.4l4.75,2.5a5.33,5.33,0,0,0-.43,2.43l-5.11.31Zm-1,6.53,5.53-.34a5,5,0,0,0,.53,1.19,5.37,5.37,0,0,0,4.11,2.6l-3.53,13.24L38,271.21A6,6,0,0,0,35,269.68ZM34.6,281.68a6.07,6.07,0,0,0,2.42-.83,6,6,0,0,0,2.3-2.47l1.84.54-4.91,18.46Zm1.09,22.73,7.25,69.21-13,7.77L19.1,366.7Zm-17,63.87,10.16,13.77-8.36,5-5.78-3.85Zm-4.33,16.23,4.92,3.28L15.62,390a5.35,5.35,0,0,0-2.27-1.71Zm-2.53,14.12a5.29,5.29,0,0,0,2.3-.75,5.37,5.37,0,0,0,2.15-6.81l4.17-2.5,21.1,14.06a6.06,6.06,0,0,0-.62,3.72L11.3,414.08Zm-.56,16.78,30-7.82a6.19,6.19,0,0,0,.47,1,4,4,0,0,0,.22.34l-31.36,27Zm-.75,22.26,32.25-27.8a6,6,0,0,0,1.83,1.18l-22,74.45-9.08.48a5.31,5.31,0,0,0-.68-1.85,5.38,5.38,0,0,0-3.8-2.56ZM8.75,492.25a5.21,5.21,0,0,0,2.24-.74,6.1,6.1,0,0,0,.59-.4l7.25,7.19L10.67,526a6.08,6.08,0,0,0-2.68.11Z"/>
  <path class="cls-35" d="M1440,586l-17.76-5.19a6.69,6.69,0,0,0-1-3.64,6.6,6.6,0,0,0-1.16-1.45l18-29.08,1.9,3.59v-3.07l-1-1.93,1-1.65v-2.72l-1.79,2.9-2.93-5.54a6,6,0,0,0,1.77-7.2l3-1.76v-1.67l-3.68,2.2a6,6,0,0,0-5.5-2.3l-23.54-75.65,32.72,3.76v-1.44l-33.18-3.82-8.33-26.76L1440,391.31V389.5l-42,32.57-13.12-42.2a6,6,0,0,0,1.43-2.2l53.66-2.8v-1.43l-53.31,2.78a6,6,0,0,0-.82-3.78,5.55,5.55,0,0,0-.74-1l8.85-45.33a6,6,0,0,0,6.22-4.25l39.8-.72v-1.43l-39.55.71a5.91,5.91,0,0,0-.85-3.43,6,6,0,0,0-3.32-2.65l5.61-28.76,20.83-25.4L1440,277.32v-2l-16.37-16.22,16.37-20v-2.26l-17.39,21.22-8.16-8.08a6,6,0,0,0,.26-6.6h0L1440,230.16v-1.61l-26.19,13.69a6,6,0,0,0-9.47,7.36A6.13,6.13,0,0,0,1407,252l-6.44,33-11.09,13.53-15.78-70.69L1440,213.29v-1.47l-66.64,14.59-1.39.3-3.37.74a6.48,6.48,0,0,0-.62-1.34,6.6,6.6,0,0,0-1.29-1.57l-1.16-.84a6.8,6.8,0,0,0-9.77,8.22l-74.37,36.28a6.55,6.55,0,0,0-.77-1l-1.08-.95a6.81,6.81,0,1,0,1.75,9.32l75.45,39.29-78.55-10.6a5.94,5.94,0,0,0-.84-2.62,6,6,0,1,0-10.36,6.21l.1.17-72.36,57.49a6,6,0,1,0-.46,10.79l39.87,66.6-112.05,80a6,6,0,1,0-3.74,10.06l22.92,94.3a6,6,0,0,0,4.35,9.65l2.29,3.08h1.78l-2.36-3.19a6,6,0,0,0,1.87-.73,6.13,6.13,0,0,0,2-1.87l44.65,5.26-.39.53h17.14l-3.06-.36-3-2.14a6.79,6.79,0,0,0-.09-6.83c-.11-.18-.23-.35-.35-.52l43.83-39.77L1270.27,640h1.55L1251,589.36l31.52-28.6a6.78,6.78,0,0,0,4.12,1.71l2,43.74L1276.44,640H1278l10.82-30,1.15,25.76-5.86,4.27h2.43l3.51-2.55.12,2.55h1.43l-.16-3.56L1337,603.2l39.52,36.8h2.1l-40.44-37.66,39.76-29,30.83,5.75a6.87,6.87,0,0,0,.16,3.54L1383.3,640h1.57l24.9-55.64a6.8,6.8,0,0,0,6.36,3l1.26,52.62h1.43l-1.26-52.93a6.26,6.26,0,0,0,1.37-.63,6.73,6.73,0,0,0,3.12-4.24l18,5.24Zm-31.63-333.53a6,6,0,0,0,4.25-.74,6.24,6.24,0,0,0,.87-.63l8.21,8.13-19.23,23.45Zm21.05,275.36a5.3,5.3,0,0,0-1,.48,5.89,5.89,0,0,0-2,2l-32-13-23.73-64.63a6.74,6.74,0,0,0,2.55-4.71l32.49,3.74Zm-3.14,8.64-19.57,14.26L1395.09,519l30.71,12.51A6,6,0,0,0,1426.28,536.42Zm-97.79-50.32a6,6,0,0,0-2.43,2.76l-34.31-17.57,1.62-34.46a6.81,6.81,0,0,0,5.77-4.4l52.72,11.39-19.09,41.54A6,6,0,0,0,1328.49,486.1Zm1.06,10.86-.12.17.06-.19Zm-35.71,59.26a6.81,6.81,0,0,0-.94-4,6.63,6.63,0,0,0-1.25-1.52l33.11-44.82-19,52.61Zm11.48,3.6-3.21,8.91-9.61-9a7,7,0,0,0,1.08-2.14Zm-14.82-10a6.87,6.87,0,0,0-2.41-.85l3.58-76.1,34,17.39a6,6,0,0,0,.77,4.12,6.07,6.07,0,0,0,1.8,1.9l-1.75,4.87Zm-53.75-106.69,53.57-23.85.72,4.19a6.83,6.83,0,0,0-4.28,9.76l-32,19.14Zm16.59,10.11-17.75,10.63.2-19.61Zm32.5-104.37,36.36-11.24,47.08,31.09-.21,7.1-67.87-2.72-16.93-18.42A6.79,6.79,0,0,0,1285.84,348.87Zm79.71-23.7a6.78,6.78,0,0,0,4.92,3.24L1369.33,367,1324,337.08l41.18-12.72A7.7,7.7,0,0,0,1365.55,325.17Zm-.88-7.8,1.31.17-.26.37Zm10,58.68-4.17-.17.19-6.24,4.66,3.08A6.11,6.11,0,0,0,1374.67,376.05Zm.3,1.44a6.25,6.25,0,0,0,1.17,2l-5.82,2.6.14-4.8Zm2.35,3.07a6.16,6.16,0,0,0,3.14,1l-10.82,23.55.63-21.44Zm-78.71,46a6.8,6.8,0,0,0-6.15-3.3l-.79-4.58,35.11-15.63L1356,434.83l-3.52,7.66-53-11.45A6.76,6.76,0,0,0,1298.61,426.56ZM1357,436l5.36,5.84a6.67,6.67,0,0,0-2,2.39l-6.49-1.4Zm.65-1.41L1368,412.12l-.84,28.36a6.88,6.88,0,0,0-3.5.58Zm-1-1.14-28.48-31,40.66-18.1-.71,24.12Zm-29.5-32.09-24.57-26.74,66.46,2.67-.17,5.49Zm-28-28.31-15.47-.62L1281,356.73a6.73,6.73,0,0,0,1.64-.71c.19-.12.38-.24.56-.37Zm1.37,1.49,25.21,27.43-34.34,15.29L1284,373.84Zm-13,59.91a6.81,6.81,0,0,0,4.38,2.38l-1.59,33.78-34.06-17.44Zm65.73,9.71,6.6,1.43a6.76,6.76,0,0,0,.75,5.18,6.55,6.55,0,0,0,1.66,1.88l-25.88,35a6.07,6.07,0,0,0-2.28-1.85ZM1337.19,489l26.33-35.64a6.82,6.82,0,0,0,5.93,0l23.18,63.12-55.57-22.64A6,6,0,0,0,1337.19,489Zm68.07-38.91-32-3.68a6.85,6.85,0,0,0-.88-2.61l24.94-19.35Zm-8.43-27.1-25.34,19.65a6.67,6.67,0,0,0-2.91-1.87l1-32,12.58-27.37a5.77,5.77,0,0,0,1.58-.64Zm-12.95-52.6a6,6,0,0,0-6.29-.05,6.12,6.12,0,0,0-1.43,1.19l-5.43-3.59,1.17-39.5a6.81,6.81,0,0,0,6.26-6.19l10.55-.19a6.34,6.34,0,0,0,.53,1.12,6.09,6.09,0,0,0,3.33,2.65Zm-6.19-51.29,10.71,1.45v.08l-10.28.19A6.6,6.6,0,0,0,1377.69,319.12ZM1400,287.93l-5.1,26.15a6,6,0,0,0-1.89.15l-3.12-14Zm-8.34,26.81-.31.17a6.08,6.08,0,0,0-2.86,4.22l-11.66-1.57a6.15,6.15,0,0,0-.57-.66l12.48-15.23Zm-26-79.31a6.8,6.8,0,0,0,3.27-6.58l3.37-.73,16,71.78L1375.12,316a6.87,6.87,0,0,0-3.7-1.12l-7.88-78.61A6.82,6.82,0,0,0,1365.64,235.43ZM1282,274.29a6.81,6.81,0,0,0,.06-4.81l74.37-36.27a6.8,6.8,0,0,0,5.73,3.19L1370,315a6.75,6.75,0,0,0-2.11.82,7,7,0,0,0-.63.43l-6.33-.85Zm-3.82,31.4,82.35,11.11,4.58,2.39a6.82,6.82,0,0,0-.35,3.8l-42.29,13.07-44.53-29.39A5.61,5.61,0,0,0,1278.13,305.69ZM1268,309.11a6,6,0,0,0,9.26-1.14l43.38,28.64-35.23,10.89a7.82,7.82,0,0,0-.42-.81,6.8,6.8,0,1,0-5.39,10.28l2.64,15.37L1197.56,369a5.8,5.8,0,0,0-.58-1.27,6.1,6.1,0,0,0-1-1.31Zm-72.51,66.45a6,6,0,0,0,2.33-5.17l84.67,3.4,7.57,44-54.69,24.35Zm38.86,68.93-.22,20.24-34.6,20.71a6.8,6.8,0,0,0-6.64,9.75l-17.11,42.45-52.14-10.21a6.09,6.09,0,0,0-.73-3.36Zm-76.29,150a6.78,6.78,0,0,0-2.65-2.51l21.26-52.75,20.66,4.05,1.05,38L1168.07,609l-10-7.47A6.83,6.83,0,0,0,1158.07,594.53Zm19.16-56.61,16.62-41.27a6.9,6.9,0,0,0,2.25,1.72l1.2,43.48Zm20.32-39a6.8,6.8,0,0,0,7.51-3.53l28.54,21.31-.29,27.64a6,6,0,0,0-5.76,3.48l-28.81-5.64Zm8-4.92a6.8,6.8,0,0,0-4-8l32.58-19.5-.51,48.47Zm-56.07,132a6,6,0,0,0-6.52-.21l-.55.37-22.71-93.45a5.59,5.59,0,0,0,1-.47,6,6,0,0,0,2.64-3.33L1175.25,539l-21.15,52.49a6.8,6.8,0,1,0,1.63,12.38,7,7,0,0,0,1.49-1.21L1167,610Zm2.29,6.93a6,6,0,0,0-.53-5.06,6.25,6.25,0,0,0-.68-.92l17.56-16,26.56,19.86a6.78,6.78,0,0,0,0,7l.16.26Zm45.26-4.52a6.58,6.58,0,0,0-1.49,1.21l-26.34-19.69,29.2-26.67,1.22,44.24A6.82,6.82,0,0,0,1197.07,628.33Zm1.71-84.73,28.32,5.55a6,6,0,0,0,.74,4.28c.13.2.26.4.41.59l-28.46,26Zm7.76,95.69-1.34-.16.46-.46Zm-1.45-10.2a6.84,6.84,0,0,0-4-1.71l-1.25-45.48L1229.25,555a6,6,0,0,0,6.4.72L1249.3,589ZM1250.43,588l-13.55-33a6,6,0,0,0-2.15-10.44l.29-26.82,46.19,34.5a6.81,6.81,0,0,0,0,7,4.65,4.65,0,0,0,.34.52Zm33.14-38.1a6.9,6.9,0,0,0-1.5,1.22l-47-35.13.53-50.39L1254.84,454l35.44,18.14-3.61,76.75A6.79,6.79,0,0,0,1283.57,549.85Zm6.32,52.83-1.81-40.27a6.75,6.75,0,0,0,2.47-.89,6.32,6.32,0,0,0,1-.7l10.07,9.37Zm1.43,32-1.27-28.29,12.68-35.18,33.23,31Zm45.82-33.37-33.89-31.56,3.5-9.7L1376,573Zm40.48-29.49-70.38-13.13,20.49-56.9,3.35-4.53a6.05,6.05,0,0,0,5.21-2.22l57,23.22,12.22,33.25Zm35,2.54a6.94,6.94,0,0,0-.71.38,6.73,6.73,0,0,0-2.69,3l-29.7-5.55L1406,553l7.32,19.94Zm-5.44-22.33,19.91-14.5a6,6,0,0,0,1.5,1.16L1414.18,571ZM1419,574.8a6.83,6.83,0,0,0-3.77-1l-.32-.87L1430,539.27a6,6,0,0,0,4.1-.35l3.27,6.2Z"/>
</svg>
