<svg id="Layer_1" data-name="Layer 1" xmlns="http://www.w3.org/2000/svg" viewBox="0 0 410 313">
  <defs>
    <style>
      .cls-1 {
        fill: #213752;
      }

      .cls-2 {
        fill: #284595;
      }

      .cls-3 {
        fill: #449042;
      }

      .cls-4 {
        fill: #213564;
      }
    </style>
  </defs>
  <title>logo_vert</title>
  <g>
    <g>
      <path class="cls-1" d="M16.07,249.48h.32a11.2,11.2,0,0,1,5.46,1.33,9.41,9.41,0,0,1,3.79,3.79A11.25,11.25,0,0,1,27,260.18a10.2,10.2,0,0,1-2.95,7.55,10.81,10.81,0,0,1-8,2.93V274H11v-3.29h-.34a11.36,11.36,0,0,1-5.49-1.31,9.34,9.34,0,0,1-3.8-3.7A10.84,10.84,0,0,1,0,260.21a11.34,11.34,0,0,1,1.34-5.53,9.59,9.59,0,0,1,3.75-3.8,11,11,0,0,1,5.4-1.4H11v-3.36h5.09Zm-5.43,4.39a5.29,5.29,0,0,0-4.13,1.66A6.75,6.75,0,0,0,5,260.21a6.26,6.26,0,0,0,1.5,4.44,5.47,5.47,0,0,0,4.22,1.62H11v-12.4Zm5.43,0v12.4h.36a5.26,5.26,0,0,0,4.07-1.63A6.35,6.35,0,0,0,22,260.18a6.78,6.78,0,0,0-1.46-4.63,5.25,5.25,0,0,0-4.19-1.68Z"/>
      <path class="cls-1" d="M45.91,261.75H35.76v6.88H47.67v4.26H30.47V247.18H47.64v4.29H35.76v6.13H45.91Z"/>
      <path class="cls-1" d="M74.57,279.21H69.68v-6.32H54.21v6.3h-5l-.29-10.56h1.94a8.35,8.35,0,0,0,2.43-3.84,26.56,26.56,0,0,0,1.15-6.27l.74-11.34H72v21.45h3ZM56.93,268.63h9.78V251.47H60.2l-.44,6.76Q59.24,265,56.93,268.63Z"/>
      <path class="cls-1" d="M93.2,261.75H83v6.88H95v4.26H77.76V247.18H94.92v4.29H83v6.13H93.2Z"/>
      <path class="cls-1" d="M103.35,263.83v9.06H98.06V247.18h10a11.47,11.47,0,0,1,5.08,1.06,7.81,7.81,0,0,1,3.38,3,8.38,8.38,0,0,1,1.18,4.44,7.39,7.39,0,0,1-2.58,6,10.77,10.77,0,0,1-7.15,2.18Zm0-4.29h4.72a4.64,4.64,0,0,0,3.2-1,3.61,3.61,0,0,0,1.1-2.82,4.26,4.26,0,0,0-1.11-3.06,4.12,4.12,0,0,0-3.07-1.2h-4.84Z"/>
      <path class="cls-1" d="M132.85,267.59h-9.27l-1.76,5.3h-5.63l9.56-25.71h4.9l9.6,25.71h-5.62ZM125,263.3h6.41l-3.22-9.62Z"/>
      <path class="cls-1" d="M163.87,247.18v25.71h-5.31V251.47h-6.84l-.42,9.08a28,28,0,0,1-1.16,7.23,7.57,7.57,0,0,1-2.63,3.87,8.14,8.14,0,0,1-4.72,1.24h-1.38v-4.26l.89-.08a3.47,3.47,0,0,0,2.84-2.31,24,24,0,0,0,1.09-7.26l.44-11.8Z"/>
      <path class="cls-1" d="M173.77,256.45h4.13a10.88,10.88,0,0,1,7.18,2.2,7.28,7.28,0,0,1,2.65,5.92,7.58,7.58,0,0,1-2.63,6,10.52,10.52,0,0,1-7,2.3h-9.64V247.18h5.32Zm0,4.27v7.91H178a4.62,4.62,0,0,0,3.24-1.11,3.86,3.86,0,0,0,1.21-3,3.51,3.51,0,0,0-1.16-2.77,4.82,4.82,0,0,0-3.16-1Z"/>
      <path class="cls-1" d="M212,272.89h-5.29v-11H196.35v11h-5.29V247.18h5.29V257.6h10.31V247.18H212Z"/>
      <path class="cls-1" d="M221.94,256.45h4.12a10.91,10.91,0,0,1,7.19,2.2,7.31,7.31,0,0,1,2.65,5.92,7.56,7.56,0,0,1-2.64,6,10.47,10.47,0,0,1-7,2.3h-9.64V247.18h5.32Zm0,4.27v7.91h4.21a4.62,4.62,0,0,0,3.24-1.11,3.86,3.86,0,0,0,1.2-3,3.5,3.5,0,0,0-1.15-2.77,4.85,4.85,0,0,0-3.17-1Zm21.45,12.17H238.1V247.18h5.29Z"/>
      <path class="cls-1" d="M263.41,247.18h5.3v25.71h-5.3V255.81l-10.28,17.08h-5.28V247.18h5.28v17.11Zm1-6.75a4.76,4.76,0,0,1-1.68,3.79,7.53,7.53,0,0,1-8.83,0,4.76,4.76,0,0,1-1.69-3.81h3.62a2.24,2.24,0,0,0,.66,1.73,2.62,2.62,0,0,0,1.82.61,2.55,2.55,0,0,0,1.8-.61,2.23,2.23,0,0,0,.65-1.73Z"/>
      <path class="cls-1" d="M297.35,249.48h.32a11.2,11.2,0,0,1,5.46,1.33,9.41,9.41,0,0,1,3.79,3.79,11.25,11.25,0,0,1,1.36,5.58,10.2,10.2,0,0,1-2.95,7.55,10.81,10.81,0,0,1-8,2.93V274h-5.09v-3.29h-.34a11.36,11.36,0,0,1-5.49-1.31,9.34,9.34,0,0,1-3.8-3.7,10.84,10.84,0,0,1-1.35-5.44,11.34,11.34,0,0,1,1.34-5.53,9.59,9.59,0,0,1,3.75-3.8,11,11,0,0,1,5.4-1.4h.49v-3.36h5.09Zm-5.43,4.39a5.29,5.29,0,0,0-4.13,1.66,6.75,6.75,0,0,0-1.51,4.68,6.26,6.26,0,0,0,1.5,4.44,5.47,5.47,0,0,0,4.22,1.62h.26v-12.4Zm5.43,0v12.4h.36a5.29,5.29,0,0,0,4.08-1.63,6.39,6.39,0,0,0,1.48-4.46,6.78,6.78,0,0,0-1.46-4.63,5.25,5.25,0,0,0-4.19-1.68Z"/>
      <path class="cls-1" d="M332.83,260.62a15.54,15.54,0,0,1-1.34,6.65,10.11,10.11,0,0,1-3.83,4.42,10.55,10.55,0,0,1-5.72,1.55,10.66,10.66,0,0,1-5.69-1.53,10.26,10.26,0,0,1-3.88-4.39,15,15,0,0,1-1.39-6.56v-1.27a15.52,15.52,0,0,1,1.36-6.69,10.22,10.22,0,0,1,3.86-4.43,11.32,11.32,0,0,1,11.4,0,10.15,10.15,0,0,1,3.86,4.43,15.32,15.32,0,0,1,1.37,6.67Zm-5.36-1.17a10.86,10.86,0,0,0-1.44-6.14,5.1,5.1,0,0,0-8.23,0,10.71,10.71,0,0,0-1.47,6.08v1.26a11,11,0,0,0,1.45,6.11,5.06,5.06,0,0,0,8.25.08,10.92,10.92,0,0,0,1.44-6.1Z"/>
      <path class="cls-1" d="M342,263.83v9.06h-5.29V247.18h10a11.55,11.55,0,0,1,5.09,1.06,7.84,7.84,0,0,1,3.37,3,8.38,8.38,0,0,1,1.18,4.44,7.39,7.39,0,0,1-2.58,6,10.76,10.76,0,0,1-7.15,2.18Zm0-4.29h4.72a4.63,4.63,0,0,0,3.2-1,3.61,3.61,0,0,0,1.1-2.82,4.26,4.26,0,0,0-1.11-3.06,4.11,4.11,0,0,0-3.06-1.2H342Z"/>
      <path class="cls-1" d="M369.58,259.33l4.67-12.15H380l-9,21.21-.73,1.39a6.55,6.55,0,0,1-6.09,3.48l-1.86-.07-.05-4.26a8.68,8.68,0,0,0,1.38.08,3.6,3.6,0,0,0,1.79-.39,2.93,2.93,0,0,0,1.13-1.43l.65-1.68-9-18.33h5.69Z"/>
      <path class="cls-1" d="M389.65,247.18l6.59,18.65,6.56-18.65h6.94v25.71h-5.31v-7l.53-12.13L398,272.89h-3.63l-6.91-19.14.53,12.11v7h-5.29V247.18Z"/>
    </g>
    <g>
      <path class="cls-1" d="M16.36,307.74H13.53v-19.1H3v19.1H.18V286.33H16.36Z"/>
      <path class="cls-1" d="M24.3,299.36v8.38H21.48V286.33h7.88a7.86,7.86,0,0,1,5.49,1.8,6.78,6.78,0,0,1,0,9.55,8.29,8.29,0,0,1-5.57,1.68Zm0-2.31h5.06A5.06,5.06,0,0,0,32.82,296,3.91,3.91,0,0,0,34,292.9a4.06,4.06,0,0,0-1.2-3.07,4.76,4.76,0,0,0-3.3-1.19H24.3Z"/>
      <path class="cls-1" d="M56.87,297.73a13.37,13.37,0,0,1-1.06,5.49,8.11,8.11,0,0,1-3,3.58A8.25,8.25,0,0,1,48.3,308a8.16,8.16,0,0,1-4.48-1.24,8.24,8.24,0,0,1-3-3.54,12.74,12.74,0,0,1-1.1-5.33v-1.55a13,13,0,0,1,1.07-5.45A7.93,7.93,0,0,1,48.27,286a8.22,8.22,0,0,1,4.52,1.24,8,8,0,0,1,3,3.6,13.44,13.44,0,0,1,1.06,5.49Zm-2.81-1.39a9.67,9.67,0,0,0-1.52-5.84,5,5,0,0,0-4.27-2,5,5,0,0,0-4.2,2,9.36,9.36,0,0,0-1.58,5.65v1.58a9.58,9.58,0,0,0,1.55,5.8,5.42,5.42,0,0,0,8.48.11,9.54,9.54,0,0,0,1.54-5.71Z"/>
      <path class="cls-1" d="M74.56,286.33h2.82v21.41H74.56v-16.5L64,307.74H61.21V286.33H64v16.5Z"/>
      <path class="cls-1" d="M93.47,292.08a3.31,3.31,0,0,0-1.24-2.72,5.34,5.34,0,0,0-3.48-1,4.82,4.82,0,0,0-3.15,1A3.19,3.19,0,0,0,84.33,292H81.51a5.19,5.19,0,0,1,.94-3,6.15,6.15,0,0,1,2.6-2.11,8.81,8.81,0,0,1,3.7-.76,8.62,8.62,0,0,1,5.56,1.61,5.43,5.43,0,0,1,2,4.47,4.43,4.43,0,0,1-.91,2.71,6.12,6.12,0,0,1-2.54,1.92,4.93,4.93,0,0,1,3.77,5,5.51,5.51,0,0,1-2.14,4.57A9,9,0,0,1,88.75,308a9.51,9.51,0,0,1-3.87-.76,6.13,6.13,0,0,1-2.7-2.15,5.65,5.65,0,0,1-1-3.32H84a3.5,3.5,0,0,0,1.34,2.8,5.08,5.08,0,0,0,3.39,1.12,5.76,5.76,0,0,0,3.67-1.07,3.42,3.42,0,0,0,1.37-2.84c0-2.51-1.55-3.78-4.65-3.83H86.5v-2.31h2.63a5.06,5.06,0,0,0,3.24-1A3.26,3.26,0,0,0,93.47,292.08Z"/>
      <path class="cls-1" d="M100.34,307.74V286.33h7a8.09,8.09,0,0,1,5.23,1.45A5.19,5.19,0,0,1,114.3,292a4.33,4.33,0,0,1-.85,2.65,5.55,5.55,0,0,1-2.31,1.79,5,5,0,0,1,2.73,1.84,5.32,5.32,0,0,1,1,3.24,5.75,5.75,0,0,1-1.87,4.53,7.68,7.68,0,0,1-5.26,1.65Zm2.81-12.28h4.26a4.47,4.47,0,0,0,3-.92,3.12,3.12,0,0,0,1.11-2.52,3,3,0,0,0-1-2.57,5,5,0,0,0-3.12-.81h-4.17Zm0,2.27v7.7h4.65a4.48,4.48,0,0,0,3.11-1,3.58,3.58,0,0,0,1.13-2.82c0-2.57-1.39-3.86-4.19-3.86Z"/>
      <path class="cls-1" d="M135.47,297.73a13.38,13.38,0,0,1-1.05,5.49,8.11,8.11,0,0,1-3,3.58,8.28,8.28,0,0,1-4.52,1.23,8.13,8.13,0,0,1-4.48-1.24,8.24,8.24,0,0,1-3-3.54,12.74,12.74,0,0,1-1.11-5.33v-1.55a13,13,0,0,1,1.08-5.45,7.93,7.93,0,0,1,7.51-4.88,8.22,8.22,0,0,1,4.52,1.24,8,8,0,0,1,3,3.6,13.44,13.44,0,0,1,1.05,5.49Zm-2.8-1.39a9.67,9.67,0,0,0-1.52-5.84,5.44,5.44,0,0,0-8.48,0,9.43,9.43,0,0,0-1.57,5.65v1.58a9.65,9.65,0,0,0,1.54,5.8,5,5,0,0,0,4.27,2.1,5,5,0,0,0,4.22-2,9.54,9.54,0,0,0,1.54-5.71Z"/>
      <path class="cls-1" d="M158.43,313h-2.8v-5.24H140.3V313h-2.82v-7.57h1.74a11.22,11.22,0,0,0,2.2-4.18,25.23,25.23,0,0,0,1-5.76l.47-9.16h12.78v19.1h2.78Zm-16-7.55h10.41V288.64h-7.23l-.31,6.3a26.76,26.76,0,0,1-1,6.3A15.06,15.06,0,0,1,142.43,305.43Z"/>
      <path class="cls-1" d="M175.28,286.33h2.81v21.41h-2.81v-16.5l-10.52,16.5h-2.83V286.33h2.83v16.5Z"/>
      <path class="cls-1" d="M197.56,288.64H190.7v19.1h-2.81v-19.1H181v-2.31h16.52Z"/>
      <path class="cls-1" d="M212.81,297.84h-9.26v7.59H214.3v2.31H200.73V286.33h13.43v2.31H203.55v6.9h9.26Z"/>
      <path class="cls-1" d="M234,286.33v21.41h-2.81v-19.1h-7.66l-.38,8.49a28.5,28.5,0,0,1-.88,6.41,6.16,6.16,0,0,1-1.91,3.16,5.4,5.4,0,0,1-3.38,1H216v-2.31l.59,0a3.07,3.07,0,0,0,2.09-.89,5.29,5.29,0,0,0,1.12-2.51,34.54,34.54,0,0,0,.54-5.29l.44-10.38Z"/>
      <path class="cls-1" d="M241.8,295.07h5.31a7.71,7.71,0,0,1,5.22,1.72,5.78,5.78,0,0,1,1.88,4.55,5.92,5.92,0,0,1-1.9,4.62,7.58,7.58,0,0,1-5.16,1.78H239V286.33h2.82Zm0,2.3v8.06H247a4.51,4.51,0,0,0,3.26-1.12,4,4,0,0,0,1.17-3,3.72,3.72,0,0,0-1.13-2.86,4.58,4.58,0,0,0-3.19-1.08Z"/>
      <path class="cls-1" d="M274.34,307.74H271.5v-9.9H260.74v9.9h-2.82V286.33h2.82v9.21H271.5v-9.21h2.84Z"/>
      <path class="cls-1" d="M295.77,297.73a13.21,13.21,0,0,1-1.06,5.49,8,8,0,0,1-3,3.58A8.25,8.25,0,0,1,287.2,308a8.12,8.12,0,0,1-4.47-1.24,8.24,8.24,0,0,1-3-3.54,12.74,12.74,0,0,1-1.11-5.33v-1.55a13.18,13.18,0,0,1,1.07-5.45,8.24,8.24,0,0,1,3-3.62,8.11,8.11,0,0,1,4.48-1.26,8.28,8.28,0,0,1,4.53,1.24,8,8,0,0,1,3,3.6,13.28,13.28,0,0,1,1.06,5.49Zm-2.8-1.39a9.6,9.6,0,0,0-1.53-5.84,5,5,0,0,0-4.27-2,5,5,0,0,0-4.2,2,9.43,9.43,0,0,0-1.58,5.65v1.58a9.65,9.65,0,0,0,1.55,5.8,5.43,5.43,0,0,0,8.49.11,9.54,9.54,0,0,0,1.54-5.71Z"/>
      <path class="cls-1" d="M315.71,301a7.88,7.88,0,0,1-2.5,5.24,8.2,8.2,0,0,1-5.6,1.84,7.54,7.54,0,0,1-6.07-2.72,11,11,0,0,1-2.28-7.27V296a12.21,12.21,0,0,1,1.07-5.25,8,8,0,0,1,3-3.48,8.46,8.46,0,0,1,4.52-1.21,7.75,7.75,0,0,1,5.46,1.9,8,8,0,0,1,2.39,5.27h-2.83a6.22,6.22,0,0,0-1.59-3.71,4.81,4.81,0,0,0-3.43-1.15,5,5,0,0,0-4.23,2,9.2,9.2,0,0,0-1.54,5.69v2.08a9.42,9.42,0,0,0,1.46,5.54,4.67,4.67,0,0,0,4.06,2.06,5.39,5.39,0,0,0,3.6-1.06,5.94,5.94,0,0,0,1.67-3.71Z"/>
      <path class="cls-1" d="M333.89,288.64H327v19.1h-2.8v-19.1h-6.85v-2.31h16.52Z"/>
      <path class="cls-1" d="M340,295.07h5.32a7.71,7.71,0,0,1,5.22,1.72,5.78,5.78,0,0,1,1.88,4.55,6,6,0,0,1-1.9,4.62,7.58,7.58,0,0,1-5.16,1.78h-8.17V286.33H340Zm0,2.3v8.06h5.15a4.52,4.52,0,0,0,3.27-1.12,4,4,0,0,0,1.16-3,3.71,3.71,0,0,0-1.12-2.86,4.6,4.6,0,0,0-3.19-1.08Z"/>
      <path class="cls-1" d="M366.81,295.71h2a4.45,4.45,0,0,0,3-1A3.42,3.42,0,0,0,373,292q0-3.77-3.74-3.77a3.9,3.9,0,0,0-2.81,1,3.52,3.52,0,0,0-1.05,2.67h-2.71a5.5,5.5,0,0,1,1.85-4.23,6.77,6.77,0,0,1,4.72-1.68,6.68,6.68,0,0,1,4.74,1.6,5.82,5.82,0,0,1,1.71,4.46,4.7,4.7,0,0,1-.9,2.7,5.45,5.45,0,0,1-2.46,2,5.24,5.24,0,0,1,2.73,1.85,5.14,5.14,0,0,1,1,3.16,5.85,5.85,0,0,1-1.88,4.57,7,7,0,0,1-4.89,1.69,7.2,7.2,0,0,1-4.89-1.63,5.4,5.4,0,0,1-1.88-4.31h2.72a3.5,3.5,0,0,0,1.11,2.71,4.18,4.18,0,0,0,2.94,1,4.09,4.09,0,0,0,3-1,3.93,3.93,0,0,0,1-2.95,3.61,3.61,0,0,0-1.14-2.87,5,5,0,0,0-3.3-1h-2Z"/>
      <path class="cls-1" d="M390.39,286.32v2.31h-.5a7.11,7.11,0,0,0-5.05,1.88,7.79,7.79,0,0,0-2.17,5.13,5.79,5.79,0,0,1,4.61-1.94,5.55,5.55,0,0,1,4.45,2,8.67,8.67,0,0,1-.13,10.38,6.2,6.2,0,0,1-4.82,2,6.1,6.1,0,0,1-5-2.36,9.37,9.37,0,0,1-1.9-6.08v-1c0-3.94.83-6.95,2.51-9s4.18-3.15,7.49-3.2ZM386.82,296a4.55,4.55,0,0,0-4.19,2.94v1a7,7,0,0,0,1.18,4.26,3.56,3.56,0,0,0,3,1.62,3.45,3.45,0,0,0,2.88-1.35,6.49,6.49,0,0,0,0-7.11A3.41,3.41,0,0,0,386.82,296Z"/>
      <path class="cls-1" d="M410,298.61q0,4.77-1.63,7.1a5.77,5.77,0,0,1-5.09,2.32,5.84,5.84,0,0,1-5.06-2.27c-1.1-1.51-1.66-3.78-1.7-6.78v-3.63q0-4.73,1.63-7a5.83,5.83,0,0,1,5.1-2.29,5.91,5.91,0,0,1,5.08,2.21c1.08,1.48,1.64,3.75,1.67,6.83Zm-2.71-3.72a10,10,0,0,0-1-5,3.34,3.34,0,0,0-3.07-1.59,3.3,3.3,0,0,0-3,1.58,9.81,9.81,0,0,0-1,4.83V299a10.14,10.14,0,0,0,1,5.13,3.32,3.32,0,0,0,3,1.65,3.28,3.28,0,0,0,3-1.56,9.77,9.77,0,0,0,1-4.91Z"/>
    </g>
    <polygon class="cls-2" points="194.57 124.59 194.57 74.4 172.4 74.4 216.21 32.18 257.26 74.4 236.56 74.4 236.56 90.22 194.57 124.59"/>
    <polygon class="cls-3" points="238.72 161.24 238.72 129.73 223.94 129.73 253.13 101.59 280.5 129.73 266.7 129.73 266.7 161.24 238.72 161.24"/>
    <polygon class="cls-1" points="172.69 126.87 171.14 128.29 171.14 128.29 145.19 152.25 161.83 152.25 161.83 169.34 166.5 169.34 166.5 147.57 157.15 147.57 172.76 133.16 189.04 147.57 180.82 147.57 180.82 177.83 185.49 177.83 185.49 152.25 201.39 152.25 172.69 126.87"/>
    <polygon class="cls-1" points="241.41 102.42 239.86 103.85 239.86 103.85 235.4 107.96 230.15 112.81 230.15 112.81 206.68 134.48 227.68 134.48 227.68 180.59 232.35 180.59 232.35 129.81 218.64 129.81 241.48 108.72 265.31 129.81 253.04 129.81 253.04 169.43 257.71 169.43 257.71 134.48 277.66 134.48 241.41 102.42"/>
    <path class="cls-1" d="M108.45,121.86A103.89,103.89,0,0,1,176.51,9.6c-8-1.48-15-2.77-15.69-2.88L161.23,0c.4,0,.73,0,31,5.66L209.51,8.9l-17.29,3.39a97,97,0,0,0-77.1,108.64Z"/>
    <path class="cls-1" d="M287.1,165.06,294.34,149A96.92,96.92,0,0,0,219.39,13.25l.92-6.68a103.65,103.65,0,0,1,85.3,131.12c5.8-5.65,10.9-10.62,11.41-11.16l5.26,4.19c-.24.35-.42.61-22.53,22.07Z"/>
    <path class="cls-1" d="M212.62,208.09a103.67,103.67,0,0,1-91.21-47.5c.4,8.11.76,15.24.83,16l-6.63,1.14c-.09-.39-.16-.7-1.64-31.49l-.84-17.63,7.27,16.08A96.62,96.62,0,0,0,281,168.6l5.06,4.46a103.38,103.38,0,0,1-73.44,35Z"/>
    <polygon class="cls-4" points="204.21 36.51 188.4 51.11 188.4 51.11 185.99 53.33 185.99 53.33 152.66 84.1 183.81 84.1 183.81 122.87 188.48 122.87 188.48 79.42 164.62 79.42 190.22 55.78 190.22 55.78 190.44 55.58 190.44 55.58 191.01 55.05 191.52 54.58 191.52 54.58 204.27 42.81 245.68 79.42 223.98 79.42 223.98 105.11 228.65 105.05 228.65 84.1 258.02 84.1 204.21 36.51"/>
  </g>
</svg>
