<svg xmlns="http://www.w3.org/2000/svg" viewBox="0 0 320 65">
  <g>
    <polygon points="27.66 38.9 27.66 23.23 20.62 23.23 34.53 10.05 47.57 23.23 40.99 23.23 40.99 28.17 27.66 38.9" style="fill: #284595"/>
    <polygon points="41.68 50.34 41.68 40.51 36.99 40.51 46.26 31.72 54.95 40.51 50.57 40.51 50.57 50.34 41.68 50.34" style="fill: #449042"/>
  </g>

  <g class="main">
    <g>
      <path d="M89.35,15.87h.19a6.63,6.63,0,0,1,3.19.77A5.45,5.45,0,0,1,95,18.82,6.46,6.46,0,0,1,95.75,22,5.83,5.83,0,0,1,94,26.39a6.44,6.44,0,0,1-4.68,1.69V30h-3V28.08h-.19A6.87,6.87,0,0,1,83,27.32a5.55,5.55,0,0,1-2.22-2.13,6.14,6.14,0,0,1-.79-3.13,6.47,6.47,0,0,1,.78-3.19,5.72,5.72,0,0,1,2.2-2.19,6.71,6.71,0,0,1,3.16-.81h.29V13.94h3Zm-3.17,2.54a3.14,3.14,0,0,0-2.43.95,3.88,3.88,0,0,0-.88,2.7,3.55,3.55,0,0,0,.88,2.55,3.23,3.23,0,0,0,2.47.93h.15V18.41Zm3.17,0v7.13h.21A3.09,3.09,0,0,0,92,24.6,3.61,3.61,0,0,0,92.82,22,3.89,3.89,0,0,0,92,19.37a3.14,3.14,0,0,0-2.46-1Z"/>
      <path d="M106.83,22.94h-6v4h7v2.45H97.79V14.55h10V17h-7v3.53h6Z"/>
      <path d="M123.61,33h-2.86V29.36h-9.06V33h-2.93l-.16-6.08h1.13a4.77,4.77,0,0,0,1.42-2.21,15.47,15.47,0,0,0,.68-3.62l.43-6.53h9.85V26.91h1.75Zm-10.33-6.09H119V17H115.2l-.26,3.9A12.88,12.88,0,0,1,113.28,26.91Z"/>
      <path d="M134.52,22.94h-5.94v4h7v2.45H125.48V14.55h10.06V17h-7v3.53h5.94Z"/>
      <path d="M140.47,24.14v5.22h-3.1V14.55h5.87a6.76,6.76,0,0,1,3,.61,4.55,4.55,0,0,1,2,1.74,4.75,4.75,0,0,1,.69,2.55,4.24,4.24,0,0,1-1.51,3.44,6.39,6.39,0,0,1-4.18,1.25Zm0-2.47h2.77a2.73,2.73,0,0,0,1.87-.57,2.06,2.06,0,0,0,.65-1.63,2.42,2.42,0,0,0-.66-1.76,2.49,2.49,0,0,0-1.79-.69h-2.84Z"/>
      <path d="M157.75,26.31h-5.43l-1,3.05H148l5.6-14.81h2.87l5.62,14.81h-3.29Zm-4.59-2.47h3.75L155,18.29Z"/>
      <path d="M175.92,14.55V29.36h-3.11V17h-4l-.24,5.23a16.36,16.36,0,0,1-.68,4.16,4.4,4.4,0,0,1-1.54,2.23,4.87,4.87,0,0,1-2.77.72h-.8V26.91l.51-.05A2,2,0,0,0,165,25.53a13.71,13.71,0,0,0,.63-4.19l.26-6.79Z"/>
      <path d="M181.72,19.89h2.41a6.45,6.45,0,0,1,4.21,1.27,4.18,4.18,0,0,1,1.55,3.41A4.3,4.3,0,0,1,188.35,28a6.21,6.21,0,0,1-4.1,1.33H178.6V14.55h3.12Zm0,2.46v4.56h2.46a2.75,2.75,0,0,0,1.9-.64,2.22,2.22,0,0,0,.71-1.72,2,2,0,0,0-.68-1.59,2.8,2.8,0,0,0-1.85-.61Z"/>
      <path d="M204.08,29.36H201V23h-6v6.35h-3.1V14.55h3.1v6h6v-6h3.1Z"/>
      <path d="M209.93,19.89h2.41a6.45,6.45,0,0,1,4.21,1.27,4.15,4.15,0,0,1,1.55,3.41A4.3,4.3,0,0,1,216.56,28a6.21,6.21,0,0,1-4.1,1.33h-5.65V14.55h3.12Zm0,2.46v4.56h2.47a2.74,2.74,0,0,0,1.89-.64,2.22,2.22,0,0,0,.71-1.72,2,2,0,0,0-.68-1.59,2.8,2.8,0,0,0-1.85-.61Zm12.56,7h-3.1V14.55h3.1Z"/>
      <path d="M234.22,14.55h3.1V29.36h-3.1V19.52l-6,9.84h-3.1V14.55h3.1v9.86Zm.6-3.88a2.7,2.7,0,0,1-1,2.17,3.86,3.86,0,0,1-2.59.84,3.93,3.93,0,0,1-2.58-.82,2.71,2.71,0,0,1-1-2.19h2.12a1.28,1.28,0,0,0,.39,1,1.52,1.52,0,0,0,1.06.35,1.54,1.54,0,0,0,1.06-.35,1.31,1.31,0,0,0,.38-1Z"/>
      <path d="M254.1,15.87h.18a6.7,6.7,0,0,1,3.2.77,5.48,5.48,0,0,1,2.22,2.18,6.46,6.46,0,0,1,.8,3.22,5.84,5.84,0,0,1-1.73,4.35,6.42,6.42,0,0,1-4.67,1.69V30h-3V28.08h-.19a6.83,6.83,0,0,1-3.22-.76,5.52,5.52,0,0,1-2.23-2.13,6.25,6.25,0,0,1-.79-3.13,6.47,6.47,0,0,1,.79-3.19,5.58,5.58,0,0,1,2.2-2.19,6.65,6.65,0,0,1,3.16-.81h.28V13.94h3Zm-3.18,2.54a3.11,3.11,0,0,0-2.42.95,3.83,3.83,0,0,0-.88,2.7,3.58,3.58,0,0,0,.87,2.55,3.24,3.24,0,0,0,2.47.93h.15V18.41Zm3.18,0v7.13h.2a3.07,3.07,0,0,0,2.39-.94,3.57,3.57,0,0,0,.88-2.56,3.89,3.89,0,0,0-.86-2.67,3.12,3.12,0,0,0-2.46-1Z"/>
      <path d="M274.88,22.29a8.82,8.82,0,0,1-.79,3.83,5.87,5.87,0,0,1-2.24,2.55,6.76,6.76,0,0,1-6.69,0,6,6,0,0,1-2.27-2.53,8.44,8.44,0,0,1-.81-3.78v-.73a8.69,8.69,0,0,1,.8-3.85,5.8,5.8,0,0,1,2.26-2.55,6.71,6.71,0,0,1,6.68,0,5.93,5.93,0,0,1,2.26,2.55,8.81,8.81,0,0,1,.8,3.84Zm-3.14-.67a6.13,6.13,0,0,0-.85-3.54,2.76,2.76,0,0,0-2.41-1.21,2.8,2.8,0,0,0-2.41,1.19,6.17,6.17,0,0,0-.86,3.51v.72a6.27,6.27,0,0,0,.85,3.52,2.78,2.78,0,0,0,2.44,1.25,2.72,2.72,0,0,0,2.39-1.21,6.18,6.18,0,0,0,.85-3.51Z"/>
      <path d="M280.22,24.14v5.22h-3.09V14.55H283a6.84,6.84,0,0,1,3,.61,4.58,4.58,0,0,1,2,1.74,4.76,4.76,0,0,1,.7,2.55,4.24,4.24,0,0,1-1.52,3.44,6.37,6.37,0,0,1-4.18,1.25Zm0-2.47H283a2.73,2.73,0,0,0,1.87-.57,2.06,2.06,0,0,0,.65-1.63,2.45,2.45,0,0,0-.65-1.76,2.51,2.51,0,0,0-1.8-.69h-2.84Z"/>
      <path d="M296.4,21.55l2.73-7h3.35l-5.26,12.22-.42.8a3.87,3.87,0,0,1-3.57,2l-1.09,0,0-2.45a5.33,5.33,0,0,0,.81,0A2.15,2.15,0,0,0,294,26.9a1.74,1.74,0,0,0,.66-.83l.38-1-5.27-10.56h3.33Z"/>
      <path d="M308.16,14.55,312,25.29l3.84-10.74h4.06V29.36h-3.1V25.31l.31-7-4.06,11h-2.13l-4-11,.31,7v4.05h-3.1V14.55Z"/>
    </g>
    <g>
      <path d="M89.68,49.35H88v-11H81.86v11H80.21V37h9.47Z"/>
      <path d="M94.32,44.53v4.82H92.68V37h4.61a4.71,4.71,0,0,1,3.21,1,3.47,3.47,0,0,1,1.16,2.74,3.43,3.43,0,0,1-1.13,2.76,4.93,4.93,0,0,1-3.26,1Zm0-1.33h3a3,3,0,0,0,2-.62,2.23,2.23,0,0,0,.71-1.77,2.29,2.29,0,0,0-.71-1.76,2.81,2.81,0,0,0-1.93-.69H94.32Z"/>
      <path d="M113.38,43.59a7.43,7.43,0,0,1-.62,3.16A4.62,4.62,0,0,1,111,48.81a4.87,4.87,0,0,1-2.64.71,4.79,4.79,0,0,1-2.62-.72,4.72,4.72,0,0,1-1.77-2,7.18,7.18,0,0,1-.65-3.06v-.89a7.4,7.4,0,0,1,.63-3.14,4.6,4.6,0,0,1,1.77-2.08,4.74,4.74,0,0,1,2.62-.73,4.87,4.87,0,0,1,2.65.72,4.56,4.56,0,0,1,1.76,2.07,7.43,7.43,0,0,1,.62,3.16Zm-1.64-.8a5.49,5.49,0,0,0-.89-3.36,3,3,0,0,0-2.5-1.17,2.94,2.94,0,0,0-2.46,1.17,5.34,5.34,0,0,0-.92,3.25v.91a5.49,5.49,0,0,0,.9,3.33,3,3,0,0,0,2.5,1.22A2.91,2.91,0,0,0,110.84,47a5.4,5.4,0,0,0,.9-3.28Z"/>
      <path d="M123.73,37h1.65V49.35h-1.65V39.86l-6.15,9.49h-1.66V37h1.66v9.49Z"/>
      <path d="M134.8,40.33a1.89,1.89,0,0,0-.73-1.56,3.15,3.15,0,0,0-2-.58,2.85,2.85,0,0,0-1.85.6,1.84,1.84,0,0,0-.74,1.48H127.8a3,3,0,0,1,.55-1.76,3.55,3.55,0,0,1,1.52-1.21,5.29,5.29,0,0,1,2.17-.44,5.07,5.07,0,0,1,3.25.93,3.11,3.11,0,0,1,1.16,2.57,2.51,2.51,0,0,1-.54,1.56,3.6,3.6,0,0,1-1.48,1.1,2.85,2.85,0,0,1,2.21,2.89,3.14,3.14,0,0,1-1.26,2.63,5.29,5.29,0,0,1-3.34,1,5.71,5.71,0,0,1-2.27-.44,3.65,3.65,0,0,1-1.58-1.24,3.2,3.2,0,0,1-.57-1.91h1.65a2,2,0,0,0,.78,1.61,3,3,0,0,0,2,.65,3.47,3.47,0,0,0,2.15-.62,2,2,0,0,0,.8-1.63c0-1.45-.91-2.18-2.72-2.21h-1.55V42.4h1.54a2.92,2.92,0,0,0,1.89-.56A1.85,1.85,0,0,0,134.8,40.33Z"/>
      <path d="M138.82,49.35V37h4.08a4.79,4.79,0,0,1,3.06.83,3,3,0,0,1,1,2.45,2.48,2.48,0,0,1-.5,1.53,3.18,3.18,0,0,1-1.36,1,2.85,2.85,0,0,1,1.6,1.06,3,3,0,0,1,.59,1.86,3.26,3.26,0,0,1-1.09,2.61,4.54,4.54,0,0,1-3.08,1Zm1.64-7.07H143a2.61,2.61,0,0,0,1.73-.53,1.79,1.79,0,0,0,.65-1.45,1.75,1.75,0,0,0-.6-1.48,3,3,0,0,0-1.83-.46h-2.44Zm0,1.31V48h2.73a2.65,2.65,0,0,0,1.81-.59,2.06,2.06,0,0,0,.67-1.62q0-2.22-2.46-2.22Z"/>
      <path d="M159.37,43.59a7.58,7.58,0,0,1-.61,3.16A4.68,4.68,0,0,1,157,48.81a4.93,4.93,0,0,1-2.65.71,4.82,4.82,0,0,1-2.62-.72,4.72,4.72,0,0,1-1.77-2,7.18,7.18,0,0,1-.65-3.06v-.89a7.4,7.4,0,0,1,.63-3.14,4.66,4.66,0,0,1,4.39-2.81,4.85,4.85,0,0,1,2.65.72,4.52,4.52,0,0,1,1.77,2.07,7.58,7.58,0,0,1,.61,3.16Zm-1.63-.8a5.42,5.42,0,0,0-.9-3.36,3,3,0,0,0-2.5-1.17,2.9,2.9,0,0,0-2.45,1.17,5.34,5.34,0,0,0-.93,3.25v.91a5.42,5.42,0,0,0,.91,3.33,3.19,3.19,0,0,0,5,.07,5.4,5.4,0,0,0,.91-3.28Z"/>
      <path d="M172.81,52.37h-1.64v-3h-9v3h-1.65V48h1a6.47,6.47,0,0,0,1.29-2.41,14.44,14.44,0,0,0,.59-3.31l.28-5.27h7.47V48h1.64ZM163.44,48h6.1V38.36h-4.23L165.13,42a15.89,15.89,0,0,1-.57,3.63A8.33,8.33,0,0,1,163.44,48Z"/>
      <path d="M182.66,37h1.65V49.35h-1.65V39.86l-6.15,9.49h-1.66V37h1.66v9.49Z"/>
      <path d="M195.7,38.36h-4v11h-1.64v-11h-4V37h9.66Z"/>
      <path d="M204.62,43.65H199.2V48h6.3v1.33h-7.94V37h7.85v1.33H199.2v4h5.42Z"/>
      <path d="M217,37V49.35h-1.65v-11h-4.48l-.22,4.88a16.7,16.7,0,0,1-.51,3.69A3.62,3.62,0,0,1,209,48.75a3.18,3.18,0,0,1-2,.6h-.54V48l.34,0a1.79,1.79,0,0,0,1.23-.51,2.93,2.93,0,0,0,.65-1.44,18.64,18.64,0,0,0,.32-3l.26-6Z"/>
      <path d="M221.58,42.06h3.11a4.52,4.52,0,0,1,3.06,1,3.3,3.3,0,0,1,1.1,2.62,3.37,3.37,0,0,1-1.11,2.65,4.55,4.55,0,0,1-3,1h-4.78V37h1.64Zm0,1.32V48h3a2.68,2.68,0,0,0,1.91-.65,2.25,2.25,0,0,0,.68-1.72,2.12,2.12,0,0,0-.66-1.65,2.72,2.72,0,0,0-1.86-.62Z"/>
      <path d="M240.62,49.35H239v-5.7h-6.3v5.7H231V37h1.65v5.3H239V37h1.65Z"/>
      <path d="M253.16,43.59a7.58,7.58,0,0,1-.61,3.16,4.7,4.7,0,0,1-1.76,2.06,4.87,4.87,0,0,1-2.64.71,4.82,4.82,0,0,1-2.62-.72,4.72,4.72,0,0,1-1.77-2,7.18,7.18,0,0,1-.65-3.06v-.89a7.4,7.4,0,0,1,.63-3.14,4.66,4.66,0,0,1,4.39-2.81,4.85,4.85,0,0,1,2.65.72,4.58,4.58,0,0,1,1.77,2.07,7.58,7.58,0,0,1,.61,3.16Zm-1.63-.8a5.42,5.42,0,0,0-.9-3.36,3.21,3.21,0,0,0-5,0,5.41,5.41,0,0,0-.92,3.25v.91a5.42,5.42,0,0,0,.91,3.33,3.19,3.19,0,0,0,5,.07,5.4,5.4,0,0,0,.91-3.28Z"/>
      <path d="M264.83,45.44a4.46,4.46,0,0,1-1.46,3,4.87,4.87,0,0,1-3.28,1.07A4.44,4.44,0,0,1,256.54,48a6.23,6.23,0,0,1-1.33-4.19V42.58a6.88,6.88,0,0,1,.62-3,4.59,4.59,0,0,1,1.76-2,5,5,0,0,1,2.65-.7A4.28,4.28,0,0,1,264.83,41h-1.66a3.5,3.5,0,0,0-.93-2.14,2.84,2.84,0,0,0-2-.66,3,3,0,0,0-2.48,1.15,5.23,5.23,0,0,0-.9,3.28v1.19a5.41,5.41,0,0,0,.85,3.19,2.77,2.77,0,0,0,2.38,1.19,3.2,3.2,0,0,0,2.11-.62,3.35,3.35,0,0,0,1-2.13Z"/>
      <path d="M275.47,38.36h-4v11h-1.64v-11h-4V37h9.67Z"/>
      <path d="M279.05,42.06h3.1a4.5,4.5,0,0,1,3.06,1,3.3,3.3,0,0,1,1.1,2.62,3.37,3.37,0,0,1-1.11,2.65,4.55,4.55,0,0,1-3,1H277.4V37h1.65Zm0,1.32V48h3a2.68,2.68,0,0,0,1.91-.65,2.25,2.25,0,0,0,.68-1.72A2.12,2.12,0,0,0,284,44a2.7,2.7,0,0,0-1.86-.62Z"/>
      <path d="M294.73,42.43h1.19a2.64,2.64,0,0,0,1.77-.59,2.16,2.16,0,0,0-1.55-3.69,2.28,2.28,0,0,0-1.64.58,2,2,0,0,0-.61,1.53H292.3a3.14,3.14,0,0,1,1.08-2.43,4,4,0,0,1,2.76-1,4,4,0,0,1,2.78.92,3.32,3.32,0,0,1,1,2.57,2.61,2.61,0,0,1-.53,1.55A3.15,3.15,0,0,1,298,43a3.12,3.12,0,0,1,1.59,1.06,3,3,0,0,1,.56,1.82,3.34,3.34,0,0,1-1.1,2.63,4.14,4.14,0,0,1-2.86,1,4.3,4.3,0,0,1-2.86-.94,3.11,3.11,0,0,1-1.1-2.48h1.59a2,2,0,0,0,.65,1.56,2.5,2.5,0,0,0,1.72.58,2.43,2.43,0,0,0,1.76-.59,2.25,2.25,0,0,0,.61-1.7,2,2,0,0,0-.67-1.65,2.89,2.89,0,0,0-1.93-.59h-1.19Z"/>
      <path d="M308.52,37v1.33h-.29a4.24,4.24,0,0,0-3,1.08,4.48,4.48,0,0,0-1.27,3,3.39,3.39,0,0,1,2.69-1.12,3.28,3.28,0,0,1,2.61,1.13,4.92,4.92,0,0,1-.08,6,3.91,3.91,0,0,1-5.73-.21,5.36,5.36,0,0,1-1.11-3.5v-.6a8,8,0,0,1,1.47-5.2A5.47,5.47,0,0,1,308.24,37Zm-2.08,5.55a2.58,2.58,0,0,0-1.51.48,2.64,2.64,0,0,0-.95,1.21v.58a4,4,0,0,0,.7,2.45,2.08,2.08,0,0,0,1.73.93,2,2,0,0,0,1.69-.78,3.17,3.17,0,0,0,.61-2,3.26,3.26,0,0,0-.62-2.06A2,2,0,0,0,306.44,42.57Z"/>
      <path d="M320,44.09a7.12,7.12,0,0,1-.95,4.09,4,4,0,0,1-5.94,0,6.69,6.69,0,0,1-1-3.9V42.22a7,7,0,0,1,.95-4,4.07,4.07,0,0,1,6,0,6.61,6.61,0,0,1,1,3.92ZM318.41,42a5.72,5.72,0,0,0-.56-2.89,2.22,2.22,0,0,0-3.58,0,5.57,5.57,0,0,0-.57,2.79v2.5a5.69,5.69,0,0,0,.59,2.95,2.15,2.15,0,0,0,3.53.05,5.59,5.59,0,0,0,.59-2.82Z"/>
    </g>
    <polygon points="20.72 39.61 20.23 40.06 20.22 40.06 11.98 47.54 17.27 47.54 17.27 52.87 18.75 52.87 18.75 46.08 15.78 46.08 20.74 41.58 25.91 46.08 23.3 46.08 23.3 55.52 24.78 55.52 24.78 47.54 29.83 47.54 20.72 39.61"/>
    <polygon points="42.53 31.98 42.04 32.43 42.04 32.42 40.63 33.71 38.96 35.22 38.96 35.22 31.51 41.99 38.18 41.99 38.18 56.39 39.66 56.39 39.66 40.53 35.31 40.53 42.56 33.95 50.13 40.53 46.23 40.53 46.23 52.9 47.71 52.9 47.71 41.99 54.05 41.99 42.53 31.98"/>
    <path d="M.32,38.05A32.2,32.2,0,0,1,21.93,3c-2.53-.47-4.75-.87-5-.9L17.08,0c.13,0,.23,0,9.83,1.77l5.5,1L26.92,3.84A30.4,30.4,0,0,0,2.14,33.53a29.77,29.77,0,0,0,.3,4.23Z"/>
    <path d="M57,51.54l2.3-5A30,30,0,0,0,49.08,9.43,31,31,0,0,0,35.54,4.14l.3-2.09A33.13,33.13,0,0,1,50.32,7.71,32.17,32.17,0,0,1,62.92,43c1.84-1.76,3.46-3.31,3.62-3.48l1.67,1.3c-.07.12-.13.2-7.15,6.9Z"/>
    <path d="M33.39,65a33.08,33.08,0,0,1-29-14.83c.13,2.53.24,4.76.27,5l-2.11.35c0-.12,0-.22-.52-9.83l-.27-5.5,2.31,5a31,31,0,0,0,51,7.47l1.6,1.4A32.81,32.81,0,0,1,39.64,64.13,33.51,33.51,0,0,1,33.39,65Z"/>
    <polygon points="30.72 11.4 25.7 15.96 25.7 15.96 24.94 16.65 24.94 16.65 14.36 26.26 24.25 26.26 24.25 38.37 25.73 38.37 25.73 24.8 18.15 24.8 26.28 17.42 26.28 17.42 26.35 17.35 26.35 17.35 26.54 17.19 26.7 17.04 26.7 17.04 30.74 13.37 43.89 24.8 37 24.8 37 32.82 38.48 32.8 38.48 26.26 47.81 26.26 30.72 11.4"/>
  </g>
</svg>
