<svg xmlns="http://www.w3.org/2000/svg" xmlns:xlink="http://www.w3.org/1999/xlink" viewBox="0 0 500 340">
  <defs>
    <linearGradient id="linear-gradient" x1="313.04" y1="229.11" x2="313.04" gradientUnits="userSpaceOnUse">
      <stop offset="0" stop-color="#3d85c6"/>
      <stop offset="0.03" stop-color="#2d6fab"/>
      <stop offset="0.08" stop-color="#1a538a"/>
      <stop offset="0.12" stop-color="#0c3e72"/>
      <stop offset="0.16" stop-color="#033263"/>
      <stop offset="0.2" stop-color="#002e5e"/>
      <stop offset="1" stop-color="#047bc1"/>
    </linearGradient>
    <linearGradient id="linear-gradient-2" x1="252.78" y1="229.11" x2="252.78" y2="26.38" gradientUnits="userSpaceOnUse">
      <stop offset="0" stop-color="#5f9e45"/>
      <stop offset="0.02" stop-color="#58963f"/>
      <stop offset="0.09" stop-color="#457e2e"/>
      <stop offset="0.15" stop-color="#396f24"/>
      <stop offset="0.2" stop-color="#356a20"/>
      <stop offset="1" stop-color="#72bf44"/>
    </linearGradient>
    <linearGradient id="linear-gradient-3" x1="201.04" y1="229.11" x2="201.04" y2="50.22" gradientUnits="userSpaceOnUse">
      <stop offset="0" stop-color="#e9e9ea"/>
      <stop offset="0.04" stop-color="#c4c5c6"/>
      <stop offset="0.08" stop-color="#a3a4a6"/>
      <stop offset="0.12" stop-color="#8b8c8e"/>
      <stop offset="0.16" stop-color="#7c7d80"/>
      <stop offset="0.19" stop-color="#77787b"/>
      <stop offset="1" stop-color="#f6f6f6"/>
    </linearGradient>
  </defs>
  <title>logo</title>
  <g>
    <g>
      <path d="M138.68,237.73h61.57s64.16-27.8,64.16-80.31V50.22h-27.8V161C236.61,212.32,138.68,237.73,138.68,237.73Z" style="fill: #123256"/>
      <path d="M210.72,237.73h61.57s23.57-25.26,23.57-77.77V26.38H268.07V160C268.07,211.31,210.72,237.73,210.72,237.73Z" style="fill: #123256"/>
      <path d="M282.76,237.87h61.57s-16.28-20.69-16.28-73.2-1-164.53-1-164.53H300s-.47,113.18-.47,164.53S282.76,237.87,282.76,237.87Z" style="fill: #123256"/>
      <path d="M282.25,229.11h61.57s-16.27-20.7-16.27-73.21-1-155.9-1-155.9H299.5S299,104.55,299,155.9,282.25,229.11,282.25,229.11Z" style="fill: url(#linear-gradient)"/>
      <path d="M210.21,229.11h61.57s23.57-25.27,23.57-77.77v-125H267.56v125C267.56,202.68,210.21,229.11,210.21,229.11Z" style="fill: url(#linear-gradient-2)"/>
      <path d="M138.18,229.11h61.57s64.15-27.8,64.15-80.31V50.22H236.11V152.35C236.11,203.7,138.18,229.11,138.18,229.11Z" style="fill: url(#linear-gradient-3)"/>
      <g>
        <path d="M179.12,179.74c1-16.29,29.62-33.63,56.9-49.11l0-4.54c-39.85,20.72-67.72,40.36-65.94,58.54,4.86,33.12,89,24.21,156.23-18.23l-.8,3.57,10.23-14.45-6.25-4.84-.8,4.1c-48,33.68-151.47,56-149.61,25" style="fill: #80c342;fill-rule: evenodd"/>
        <path d="M334.66,160.88c79.33-60.24,48.9-82.62-7.23-67.75l0,1.62c74.07-18.13,71.29,20.94,9.95,54.89Z" style="fill: #80c342;fill-rule: evenodd"/>
      </g>
    </g>
    <g>
      <path d="M494.71,286.9h-5.82V262l-1.46,4.15-7.06,20.79h-5.61l-7.07-20.79L466.36,262l0,4.49V286.9h-5.9V257.8h10l5.82,16.92,1.29,5.15,1.41-5.15,5.82-16.92h10Zm-37.62-29.1-11.64,24.77a8.42,8.42,0,0,1-2.85,3.6,7.27,7.27,0,0,1-4.05,1.06,11.19,11.19,0,0,1-2.2-.23,11.64,11.64,0,0,1-2.2-.68l.66-4.41a5.59,5.59,0,0,0,2.49.62,4.6,4.6,0,0,0,1.75-.25,2.91,2.91,0,0,0,1.54-1.7l.83-1.95L430.74,257.8h6.61l5.77,12.39,1.25,3.07,1.37-3.11,5.53-12.35Zm-34.67,8.94a4.07,4.07,0,0,0-1.16-3.08,5.22,5.22,0,0,0-3.78-1.29h-2.7v9h2.7a4.87,4.87,0,0,0,3.82-1.49A4.54,4.54,0,0,0,422.42,266.74Zm6.24.16a8.67,8.67,0,0,1-2.25,6q-2.78,3.12-7.85,3.12h-3.78V286.9h-5.91V257.8h8.61q5.28,0,8.23,2.43A8.17,8.17,0,0,1,428.66,266.9Zm-30.8,5.45q0-6.41-3.16-9.06a7.89,7.89,0,0,0-9.68,0q-3.21,2.65-3.2,9.06t3.15,9.06a7.36,7.36,0,0,0,4.87,1.66,7.28,7.28,0,0,0,4.82-1.66Q397.86,278.76,397.86,272.35Zm6.23,0q0,7.39-4.4,11.39a15.66,15.66,0,0,1-19.66,0q-4.45-4-4.45-11.43T380,261a15.66,15.66,0,0,1,19.66,0Q404.09,264.91,404.09,272.35Zm-53.24,7.9v-15.8H349.6a7,7,0,0,0-5.07,1.87,9.56,9.56,0,0,0,0,12,6.85,6.85,0,0,0,5.07,1.92Zm14.34-7.9a8.12,8.12,0,0,0-2.12-6,6.87,6.87,0,0,0-5.07-1.91h-1.25v15.8H358a7,7,0,0,0,5.07-1.87A8.1,8.1,0,0,0,365.19,272.35Zm6.23,0a11.69,11.69,0,0,1-3.94,9.27,13.19,13.19,0,0,1-9,3.2h-1.75v3.74h-5.9v-3.74H349.1a13.08,13.08,0,0,1-8.93-3.16,12.85,12.85,0,0,1,0-18.58,13.15,13.15,0,0,1,9-3.2h1.75v-3.74h5.9v3.74h1.75a13.08,13.08,0,0,1,8.93,3.16A11.76,11.76,0,0,1,371.42,272.35Zm-55,14.55h-5.9v-15l.13-7-2.12,4.4L298.23,286.9h-7.07V257.8h5.9v15l-.12,7.06,2.2-4.24,10.19-17.79h7.06Zm-5.23-36a8.14,8.14,0,0,1-2.21,3.16,9.59,9.59,0,0,1-10.93,0,7.16,7.16,0,0,1-2.24-3.16l3-1.62a3.87,3.87,0,0,0,2.33,2.33,6.36,6.36,0,0,0,2.33.37,5.78,5.78,0,0,0,3-.68,4.06,4.06,0,0,0,1.68-2Zm-41.9,26.89a4.36,4.36,0,0,0-1-3,5.43,5.43,0,0,0-4.32-1.58h-3.45v9.06h3.9a5.13,5.13,0,0,0,3.5-1.2A4.21,4.21,0,0,0,269.26,277.79Zm6-.29a9,9,0,0,1-2.28,6.36c-1.89,2-4.75,3-8.61,3h-9.8V257.8h5.9v10.89h4.07q5,0,7.77,2.29A8,8,0,0,1,275.28,277.5Zm10.06,9.4h-5.9V257.8h5.9Zm-36.57,0h-5.91V274.3h-11.8v12.6h-5.9V257.8h5.9v11.72h11.8V257.8h5.91Zm-34.42-9.11a4.36,4.36,0,0,0-1-3,5.43,5.43,0,0,0-4.32-1.58h-3.45v9.06h3.91a5.12,5.12,0,0,0,3.49-1.2A4.21,4.21,0,0,0,214.35,277.79Zm6-.29a8.91,8.91,0,0,1-2.29,6.36q-2.82,3-8.6,3h-9.81V257.8h5.9v10.89h4.07q5,0,7.78,2.29A8.07,8.07,0,0,1,220.38,277.5Zm-26.52,9.4H188V263h-7.69v5.81c0,4.52-.09,7.56-.25,9.11a13.9,13.9,0,0,1-2.16,6.73c-1.33,1.75-3.36,2.62-6.07,2.62a13.39,13.39,0,0,1-1.37-.06,11.41,11.41,0,0,1-1.46-.27l.25-4.62.76.13a7.3,7.3,0,0,0,.81.08q2.47,0,3.34-3.41a34.18,34.18,0,0,0,.62-7.69V257.8h19.12Zm-36.79-11.35-4.28-11.89-4.11,11.89Zm10.85,11.35h-6.65l-2.45-6.53h-12l-2.46,6.53H138l11.59-29.1h6.74Zm-38.4-20.16a4.08,4.08,0,0,0-1.17-3.08,5.2,5.2,0,0,0-3.78-1.29h-2.7v9h2.7a4.85,4.85,0,0,0,3.82-1.49A4.55,4.55,0,0,0,129.52,266.74Zm6.23.16a8.71,8.71,0,0,1-2.24,6q-2.79,3.12-7.86,3.12h-3.78V286.9H116V257.8h8.6q5.28,0,8.23,2.43A8.17,8.17,0,0,1,135.75,266.9ZM111,286.9H93.6V257.8H111V263H99.51v6.56h10.43v4.78H99.51v7.44H111Zm-30.34-5.16V263H73.2v4.15a46.69,46.69,0,0,1-.5,7.69,22,22,0,0,1-2.5,6.94ZM89.86,293H84V286.9H66.55V293H60.73V281.74h3.32a23.54,23.54,0,0,0,2.87-7.19,36,36,0,0,0,.66-7.44V257.8h19v23.94h3.32Zm-32-6.11H40.44V257.8H57.82V263H46.34v6.56H56.78v4.78H46.34v7.44H57.82Zm-43.15-6.65v-15.8H13.42a7,7,0,0,0-5.07,1.87,9.56,9.56,0,0,0,0,12,6.85,6.85,0,0,0,5.07,1.92ZM29,272.35a8.08,8.08,0,0,0-2.12-6,6.86,6.86,0,0,0-5.07-1.91H20.57v15.8h1.25a7,7,0,0,0,5.07-1.87A8.06,8.06,0,0,0,29,272.35Zm6.24,0a11.7,11.7,0,0,1-3.95,9.27,13.17,13.17,0,0,1-9,3.2H20.57v3.74h-5.9v-3.74H12.93A13.08,13.08,0,0,1,4,281.66a12.85,12.85,0,0,1,0-18.58,13.17,13.17,0,0,1,9-3.2h1.74v-3.74h5.9v3.74h1.75A13.08,13.08,0,0,1,31.26,263,11.76,11.76,0,0,1,35.25,272.35Z" style="fill: #123256"/>
      <path d="M497.2,320.22a24,24,0,0,0-1-7.85c-1-2.68-2.83-4-5.48-4a5.22,5.22,0,0,0-4.65,2.36c-1.21,1.84-1.81,5-1.81,9.5a23.61,23.61,0,0,0,1,7.84q1.5,4,5.48,4a5.22,5.22,0,0,0,4.65-2.37c1.21-1.83,1.81-5,1.81-9.49m2.8,0a30.3,30.3,0,0,1-.47,5.75,12.5,12.5,0,0,1-2.56,5.75,8.72,8.72,0,0,1-12.42,0A12.1,12.1,0,0,1,482,326a29.4,29.4,0,0,1-.51-5.79,30.41,30.41,0,0,1,.47-5.76,12.4,12.4,0,0,1,2.56-5.75,8.72,8.72,0,0,1,12.42,0,12.15,12.15,0,0,1,2.56,5.71A29.58,29.58,0,0,1,500,320.22Zm-25.06,5.24a6.93,6.93,0,0,0-1.64-4.79,6.29,6.29,0,0,0-8.87,0,7.85,7.85,0,0,0,0,9.58,6.29,6.29,0,0,0,8.87,0A6.94,6.94,0,0,0,474.94,325.46Zm2.79,0a9,9,0,0,1-2,6,8.16,8.16,0,0,1-6.65,2.83c-3.45,0-6-1.28-7.53-3.86a13,13,0,0,1-1.7-6.85q0-9,2.68-13.32a8.36,8.36,0,0,1,7.61-4.18c1.21,0,2.36,0,3.45.14a22.54,22.54,0,0,1,3.05.45l-.24,2.33a14.93,14.93,0,0,0-2.94-.54c-1.07-.09-2.17-.13-3.3-.13a6.59,6.59,0,0,0-5.81,3.07,14.54,14.54,0,0,0-2,8.2v.86a8.36,8.36,0,0,1,2.32-2.6,7.16,7.16,0,0,1,4.3-1.3,8.92,8.92,0,0,1,6.11,2.09A8.56,8.56,0,0,1,477.73,325.5Zm-22.42.86a7.14,7.14,0,0,1-2.62,5.78,10.37,10.37,0,0,1-6.88,2.18,23.68,23.68,0,0,1-4.11-.33,16.8,16.8,0,0,1-3.37-.93l.39-2.4a12.62,12.62,0,0,0,3.43,1.1,21.37,21.37,0,0,0,3.66.32,7.83,7.83,0,0,0,4.34-1.18,5.6,5.6,0,0,0,.39-8.83,6.75,6.75,0,0,0-4.21-1.26h-4.06v-2.25h4.1a5.74,5.74,0,0,0,4.29-1.65,5.5,5.5,0,0,0,1.62-4,3.91,3.91,0,0,0-1.7-3.33,7.2,7.2,0,0,0-4.37-1.24,16,16,0,0,0-3.55.37,14.57,14.57,0,0,0-3,1l-.24-2.4a16.77,16.77,0,0,1,3.31-.95,21.06,21.06,0,0,1,3.47-.27,10.33,10.33,0,0,1,6.15,1.69,6,6,0,0,1,2.6,5.13,6.93,6.93,0,0,1-.87,3.54,7.09,7.09,0,0,1-4.34,3.16,7.23,7.23,0,0,1,3.79,2A6.5,6.5,0,0,1,455.31,326.36Zm-30-.47c0-2.39-.9-4.06-2.68-5a9.44,9.44,0,0,0-4.42-.91H413.8v11.78h5a6.56,6.56,0,0,0,4.93-1.81A5.59,5.59,0,0,0,425.27,325.89Zm2.79-.08a7.9,7.9,0,0,1-2.28,5.68,8.31,8.31,0,0,1-6.23,2.52H411.2V306.42h2.6v11.31h4.41a11.57,11.57,0,0,1,7.21,2A7.17,7.17,0,0,1,428.06,325.81Zm-20.41-17.14h-8.24V334h-2.6V308.67h-8.27v-2.25h19.11Zm-19.9,24.59a23.14,23.14,0,0,1-3.21.73,27.29,27.29,0,0,1-4.43.33q-6.56,0-10.09-4.49a14.31,14.31,0,0,1-3-9.18,15.77,15.77,0,0,1,2.92-9.69q3.58-4.86,10.48-4.85a26.79,26.79,0,0,1,3.76.22,15.77,15.77,0,0,1,3.29.84l-.23,2.37a17.38,17.38,0,0,0-6.58-1.18,9.86,9.86,0,0,0-7.87,3.48,13.19,13.19,0,0,0-3,8.85,11.78,11.78,0,0,0,2.93,8.1,9.9,9.9,0,0,0,7.75,3.29,19.61,19.61,0,0,0,7.25-1.3Zm-26.88-13q0-5.83-3-9.07a8.71,8.71,0,0,0-6.66-2.83,8.8,8.8,0,0,0-6.66,2.83q-3,3.24-3,9.07t3,9a8.75,8.75,0,0,0,6.66,2.8,8.84,8.84,0,0,0,6.66-2.8Q360.87,326.08,360.87,320.26Zm2.8,0q0,6.62-3.58,10.44a12.73,12.73,0,0,1-17.78,0q-3.62-3.82-3.62-10.44a15.44,15.44,0,0,1,3.07-9.86,12.49,12.49,0,0,1,18.84,0A15.34,15.34,0,0,1,363.67,320.26ZM333.56,334H331V320.85H316.62V334H314V306.42h2.6V318.6H331V306.42h2.6Zm-27.66-8.12q0-3.58-2.68-5a9.43,9.43,0,0,0-4.41-.91h-4.38v11.78h5a6.55,6.55,0,0,0,4.92-1.81A5.59,5.59,0,0,0,305.9,325.89Zm2.8-.08a7.87,7.87,0,0,1-2.29,5.68,8.29,8.29,0,0,1-6.22,2.52h-8.36V306.42h2.6v11.31h4.42a11.59,11.59,0,0,1,7.21,2A7.17,7.17,0,0,1,308.7,325.81Zm-23.77,8.24h-2.6V308.67h-10.6V316c0,4.34-.06,7.3-.19,8.91a17.59,17.59,0,0,1-1.62,6.77,5,5,0,0,1-4.65,2.68,8.76,8.76,0,0,1-.91-.05,9.61,9.61,0,0,1-1-.22l.16-2.17a6.42,6.42,0,0,0,1.56.2q2.51,0,3.45-4.3a42,42,0,0,0,.62-8.31V306.42h15.8Zm-23.36,0H247.42V306.42h13.4v2.25H250v10h10.29v2.25H250v10.87h11.55Zm-17.7-25.34h-8.23V334H233V308.67h-8.28v-2.25h19.11ZM221.21,334h-2.6V313.28l.16-3.35-1.5,2.6L203.79,334h-2.95V306.42h2.6v20.73l-.16,3.35,1.66-2.8,13.32-21.28h3Zm-30.7-2.25V308.67H180v5.64q0,4.33-.11,6.58a23.28,23.28,0,0,1-.83,4.84,25.28,25.28,0,0,1-2.56,6Zm5.8,8.24h-2.6v-6H173.77v6h-2.61v-8.24h2.33a21.58,21.58,0,0,0,3.43-8.47,66.15,66.15,0,0,0,.43-9.3v-7.57h15.77v25.34h3.19ZM166.4,320.26q0-5.83-3-9.07a8.71,8.71,0,0,0-6.66-2.83,8.8,8.8,0,0,0-6.66,2.83q-3,3.24-3,9.07t3,9a9.32,9.32,0,0,0,13.32,0Q166.4,326.08,166.4,320.26Zm2.79,0q0,6.62-3.58,10.44a12.71,12.71,0,0,1-17.77,0q-3.63-3.82-3.63-10.44a15.44,15.44,0,0,1,3.07-9.86,12.49,12.49,0,0,1,18.84,0A15.34,15.34,0,0,1,169.19,320.26Zm-31.52,6a4.82,4.82,0,0,0-1.76-4,7,7,0,0,0-4.63-1.44h-4.45v10.87H131a8.92,8.92,0,0,0,4.18-.82A4.85,4.85,0,0,0,137.67,326.29Zm-.79-12.89a4.19,4.19,0,0,0-1.54-3.57,6.5,6.5,0,0,0-4-1.16h-4.49v10h4.42a5.67,5.67,0,0,0,4.13-1.46A5,5,0,0,0,136.88,313.4Zm3.59,12.85A6.93,6.93,0,0,1,138,332a10.36,10.36,0,0,1-6.62,2h-7.13V306.42h7.37c2.73,0,4.79.69,6.19,2.05a6.55,6.55,0,0,1,1.89,4.89,6.23,6.23,0,0,1-1,3.63,7,7,0,0,1-3.74,2.6,7,7,0,0,1,4,2.36A6.5,6.5,0,0,1,140.47,326.25Zm-20.77.55a6.4,6.4,0,0,1-3.31,5.75,12.78,12.78,0,0,1-6.9,1.77,15.91,15.91,0,0,1-4-.47,17.38,17.38,0,0,1-3.49-1.26l.36-2.44a17.73,17.73,0,0,0,3.47,1.4,13.22,13.22,0,0,0,3.62.53,9.29,9.29,0,0,0,5.26-1.42,4.41,4.41,0,0,0,2.15-3.86,5.81,5.81,0,0,0-1.38-4.1q-1.81-2-5.91-2h-3.35v-2.25h3.23c2.55,0,4.35-.65,5.4-2a5.66,5.66,0,0,0,1.1-3.66,3.75,3.75,0,0,0-1.79-3.29,8.23,8.23,0,0,0-4.67-1.2,13.93,13.93,0,0,0-3.27.41,19.38,19.38,0,0,0-3.35,1.12l-.2-2.48a22.72,22.72,0,0,1,3.39-1,18,18,0,0,1,3.43-.33,10.91,10.91,0,0,1,6.82,1.89,6,6,0,0,1,2.44,5,7.27,7.27,0,0,1-1.18,4.21,5.54,5.54,0,0,1-3.31,2.29,6.28,6.28,0,0,1,4,2.5A8.15,8.15,0,0,1,119.7,326.8ZM98.3,334H95.7V313.28l.16-3.35-1.5,2.6L80.88,334H77.93V306.42h2.6v20.73l-.16,3.35L82,327.7l13.32-21.28h3ZM70,320.26q0-5.83-3-9.07a8.71,8.71,0,0,0-6.66-2.83,8.8,8.8,0,0,0-6.66,2.83q-3,3.24-3,9.07t3,9a8.75,8.75,0,0,0,6.66,2.8,8.84,8.84,0,0,0,6.66-2.8Q70,326.08,70,320.26Zm2.79,0q0,6.62-3.58,10.44a11.7,11.7,0,0,1-8.91,3.62,11.65,11.65,0,0,1-8.87-3.62q-3.61-3.82-3.62-10.44a15.44,15.44,0,0,1,3.07-9.86,11.33,11.33,0,0,1,9.42-4.29,11.33,11.33,0,0,1,9.42,4.29A15.34,15.34,0,0,1,72.8,320.26Zm-30.54-5.88a5.34,5.34,0,0,0-1.67-4.27,6.4,6.4,0,0,0-4.32-1.44H32.21V320.1h4.06a6.1,6.1,0,0,0,4.45-1.5A5.6,5.6,0,0,0,42.26,314.38Zm2.8,0a7.71,7.71,0,0,1-2.23,5.78,8.24,8.24,0,0,1-6,2.19H32.21V334h-2.6V306.42h7.17a8.24,8.24,0,0,1,6,2.19A7.71,7.71,0,0,1,45.06,314.38ZM22.72,334H20.11V308.67H5.73V334H3.13V306.42H22.72Z" style="fill: #123256"/>
    </g>
  </g>
</svg>
